<svg width="24" height="24" viewBox="0 0 24 24" fill="none" xmlns="http://www.w3.org/2000/svg">
<path d="M21.7031 6.18749H17.8777V4.17889C17.8777 3.97264 17.8148 3.80389 17.6086 3.80389H16.8586C16.6523 3.80389 16.6405 3.97264 16.6405 4.17889V6.18749L12.6182 6.12942V4.17889C12.6182 3.97264 12.5836 3.80389 12.3773 3.80389H11.9258H11.5C11.3558 3.94135 11.3573 3.98285 11.3573 4.17889V6.18749H7.52344V4.17889C7.52344 3.97264 7.35469 3.80389 7.14844 3.80389H6.39844C6.39844 3.80389 6.77344 3.80389 6.39844 4.17889V6.18749H2.20312C1.79062 6.18749 1.45312 6.52499 1.45312 6.93749V19.5C1.45312 19.9125 1.79062 20.25 2.20312 20.25H21.7031C22.1156 20.25 22.4531 19.9125 22.4531 19.5V6.93749C22.4531 6.52499 22.1156 6.18749 21.7031 6.18749ZM21.5 18.9999H2.5L2.54795 7.49994H6.39844V9.28827C6.39844 9.49452 6.46786 9.66327 6.67411 9.66327H7.14844C7.35469 9.66327 7.52344 9.49452 7.52344 9.28827V7.49994H11.3573V9.28827C11.3573 9.49452 11.4211 9.66327 11.6273 9.66327H12.3773C12.5836 9.66327 12.6182 9.49452 12.6182 9.28827V7.49994H16.6405V9.33112C16.6405 9.53737 16.65 9.66327 16.8563 9.66327H17.6063C17.8125 9.66327 17.8777 9.49319 17.8777 9.28694V7.49994H21.5V18.9999Z" fill="white"/>
<path d="M9.07759 12.1864H5.37931C5.17069 12.1864 5 12.35 5 12.55V13.2773C5 13.4773 5.29138 13.5 5.5 13.5L9.07759 13.4932C9.28621 13.4932 9.4569 13.4773 9.4569 13.2773V12.55C9.4569 12.35 9.28621 12.1864 9.07759 12.1864ZM9.07759 14.9591H5.37931C5.17069 14.9591 5 15.1227 5 15.3227V16.05C5 16.25 5.17069 16.2535 5.37931 16.2535H9.07759C9.28621 16.2535 9.4569 16.25 9.4569 16.05V15.3227C9.4569 15.1227 9.28621 14.9591 9.07759 14.9591ZM18.5 12C18.5 12 18.1351 12.3795 18 12.5L14.2125 15.802L13.5 15L12.5 14L12 13.5C12 13.5 11.6 13.3727 11.4649 13.4932C11.178 13.7477 11.1614 14.1818 11.4293 14.4568L13.691 16.7841C13.8308 16.9273 14.0205 17 14.2125 17C14.3856 17 14.561 16.9386 14.6961 16.8182L18.7737 13.1773C19.0606 12.9227 19.0772 12.4886 18.8093 12.2136C18.6694 12.0727 18.692 12 18.5 12Z" fill="white"/>
</svg>
