<svg width="18" height="18" viewBox="0 0 18 18" fill="none" xmlns="http://www.w3.org/2000/svg">
<path d="M15.75 1.8H13.05V0.45C13.05 0.330653 13.0026 0.216193 12.9182 0.131802C12.8338 0.0474107 12.7193 0 12.6 0C12.4807 0 12.3662 0.0474107 12.2818 0.131802C12.1974 0.216193 12.15 0.330653 12.15 0.45V1.8H5.85V0.45C5.85 0.330653 5.80259 0.216193 5.7182 0.131802C5.63381 0.0474107 5.51935 0 5.4 0C5.28065 0 5.16619 0.0474107 5.0818 0.131802C4.99741 0.216193 4.95 0.330653 4.95 0.45V1.8H2.25C1.65348 1.80071 1.0816 2.038 0.659799 2.4598C0.237997 2.8816 0.000714536 3.45348 0 4.05V15.75C0.000714536 16.3465 0.237997 16.9184 0.659799 17.3402C1.0816 17.762 1.65348 17.9993 2.25 18H15.75C16.3466 17.9995 16.9186 17.7623 17.3405 17.3405C17.7623 16.9186 17.9995 16.3466 18 15.75V4.05C17.9995 3.45341 17.7623 2.88139 17.3405 2.45954C16.9186 2.03768 16.3466 1.80048 15.75 1.8ZM17.1 15.75C17.1 16.108 16.9578 16.4514 16.7046 16.7046C16.4514 16.9578 16.108 17.1 15.75 17.1H2.25C1.89196 17.1 1.54858 16.9578 1.29541 16.7046C1.04223 16.4514 0.9 16.108 0.9 15.75V8.1H17.1V15.75ZM17.1 7.2H0.9V4.05C0.9 3.3048 1.503 2.7 2.25 2.7H4.95V4.05C4.95 4.16935 4.99741 4.28381 5.0818 4.3682C5.16619 4.45259 5.28065 4.5 5.4 4.5C5.51935 4.5 5.63381 4.45259 5.7182 4.3682C5.80259 4.28381 5.85 4.16935 5.85 4.05V2.7H12.15V4.05C12.15 4.16935 12.1974 4.28381 12.2818 4.3682C12.3662 4.45259 12.4807 4.5 12.6 4.5C12.7193 4.5 12.8338 4.45259 12.9182 4.3682C13.0026 4.28381 13.05 4.16935 13.05 4.05V2.7H15.75C16.108 2.7 16.4514 2.84223 16.7046 3.09541C16.9578 3.34858 17.1 3.69196 17.1 4.05V7.2Z" fill="white"/>
</svg>
