<svg width="135" height="24" viewBox="0 0 135 24" fill="none" xmlns="http://www.w3.org/2000/svg">
<g clip-path="url(#clip0_1_927)">
<g clip-path="url(#clip1_1_927)">
<g clip-path="url(#clip2_1_927)">
<g clip-path="url(#clip3_1_927)">
<g clip-path="url(#clip4_1_927)">
<g clip-path="url(#clip5_1_927)">
<g clip-path="url(#clip6_1_927)">
<path d="M35.9944 20.7043H33.9173L31.001 6.26418H32.8053L34.253 14.1226C34.3789 14.915 34.5118 15.6928 34.6516 16.4559C34.7915 17.219 34.9244 17.9968 35.0503 18.7892H35.1342C35.2881 17.9968 35.4489 17.2146 35.6168 16.4427C35.7846 15.6737 35.9455 14.9004 36.0993 14.1226L38.0086 6.26418H39.6031L41.5124 14.1226C41.6802 14.8857 41.848 15.6561 42.0159 16.4339C42.1837 17.2117 42.3516 17.9968 42.5194 18.7892H42.6034C42.7292 17.9968 42.8551 17.2146 42.981 16.4427C43.1069 15.6737 43.2398 14.9004 43.3796 14.1226L44.8273 6.26418H46.5058L43.6524 20.7043H41.5543L39.4772 12.0094C39.3513 11.4518 39.2366 10.9044 39.1331 10.3673C39.0268 9.83312 38.9177 9.28721 38.8058 8.72957H38.7219C38.61 9.28721 38.4953 9.83312 38.3778 10.3673C38.2575 10.9044 38.1414 11.4518 38.0295 12.0094L35.9944 20.7043ZM51.0796 20.9684C50.2264 20.9684 49.5158 20.7043 48.948 20.176C48.3829 19.6477 48.1003 18.8993 48.1003 17.9307C48.1003 16.7567 48.5969 15.8572 49.59 15.232C50.5831 14.6098 52.1706 14.174 54.3526 13.9245C54.3526 13.587 54.3204 13.2568 54.2561 12.9339C54.1945 12.6111 54.0868 12.3249 53.933 12.0754C53.7791 11.826 53.5651 11.6235 53.291 11.4679C53.0196 11.3153 52.6741 11.239 52.2545 11.239C51.6671 11.239 51.1146 11.3564 50.597 11.5912C50.0795 11.826 49.6179 12.0901 49.2123 12.3836L48.5409 11.1289C49.0165 10.8061 49.597 10.4935 50.2823 10.1912C50.9677 9.89182 51.723 9.74213 52.5483 9.74213C53.7931 9.74213 54.6953 10.1413 55.2548 10.9396C55.8143 11.7409 56.094 12.8092 56.094 14.1446V20.7043H54.6673L54.5205 19.4276H54.4575C53.968 19.8531 53.4434 20.2156 52.8839 20.515C52.3245 20.8173 51.723 20.9684 51.0796 20.9684ZM51.5831 19.5156C52.0727 19.5156 52.5343 19.3938 52.9679 19.1502C53.4015 18.9095 53.8631 18.5544 54.3526 18.0848V15.1131C53.4994 15.2305 52.7818 15.37 52.2 15.5314C51.6209 15.6928 51.1523 15.8836 50.7943 16.1037C50.439 16.3238 50.1802 16.5777 50.018 16.8653C49.8585 17.15 49.7788 17.4611 49.7788 17.7986C49.7788 18.415 49.9536 18.8552 50.3033 19.1194C50.653 19.3835 51.0796 19.5156 51.5831 19.5156ZM63.5212 20.7043H61.5029L57.8312 10.0063H59.6146L61.549 16.0817C61.7029 16.61 61.8595 17.1383 62.019 17.6666C62.1812 18.1949 62.3393 18.7158 62.4932 19.2295H62.5771C62.7309 18.7158 62.8848 18.1949 63.0387 17.6666C63.1925 17.1383 63.345 16.61 63.496 16.0817L65.4305 10.0063H67.1299L63.5212 20.7043ZM73.2311 20.9684C72.5458 20.9684 71.9065 20.8393 71.3135 20.581C70.7176 20.3257 70.2001 19.9588 69.7609 19.4804C69.3189 19.0049 68.972 18.4223 68.7203 17.7326C68.4685 17.0429 68.3426 16.2578 68.3426 15.3773C68.3426 14.4968 68.4727 13.7073 68.7328 13.0088C68.9902 12.3132 69.3329 11.7232 69.7609 11.239C70.1861 10.7547 70.6715 10.3834 71.217 10.1251C71.7625 9.8698 72.329 9.74213 72.9164 9.74213C73.5598 9.74213 74.1375 9.85953 74.6494 10.0943C75.1586 10.3291 75.5852 10.6667 75.9293 11.1069C76.2705 11.5471 76.5321 12.0754 76.7139 12.6918C76.8958 13.3081 76.9867 13.9979 76.9867 14.7609C76.9867 14.9517 76.9839 15.1381 76.9783 15.3201C76.9699 15.505 76.9517 15.6635 76.9237 15.7955H70.042C70.112 16.9402 70.4519 17.8456 71.0617 18.5118C71.6688 19.181 72.4618 19.5156 73.4409 19.5156C73.9305 19.5156 74.3823 19.4378 74.7963 19.2823C75.2075 19.1297 75.602 18.9286 75.9796 18.6791L76.5881 19.8678C76.1405 20.1613 75.6439 20.4181 75.0984 20.6382C74.5529 20.8584 73.9305 20.9684 73.2311 20.9684ZM70.0211 14.4968H75.4761C75.4761 13.4109 75.2565 12.5847 74.8173 12.0182C74.3753 11.4547 73.7556 11.1729 72.9584 11.1729C72.5947 11.1729 72.2492 11.2463 71.9219 11.3931C71.5918 11.5398 71.2939 11.7555 71.0281 12.0402C70.7624 12.3278 70.5428 12.6771 70.3693 13.088C70.1931 13.4989 70.077 13.9685 70.0211 14.4968ZM83.1341 20.7043H81.1199L78.2875 10.0063H80.0499L81.5605 16.1917C81.6724 16.7054 81.7773 17.2043 81.8752 17.6886C81.9731 18.1729 82.071 18.6645 82.1689 19.1634H82.2529C82.3648 18.6645 82.4767 18.1685 82.5886 17.6754C82.7005 17.1852 82.8194 16.6907 82.9452 16.1917L84.5188 10.0063H86.1973L87.7918 16.1917C87.9177 16.7054 88.0408 17.2043 88.1611 17.6886C88.2786 18.1729 88.3933 18.6645 88.5052 19.1634H88.5891C88.701 18.6645 88.8059 18.1729 88.9038 17.6886C89.0017 17.2043 89.1066 16.7054 89.2185 16.1917L90.7081 10.0063H92.3446L89.6171 20.7043H87.5191L86.0504 14.9591C85.9245 14.4454 85.8084 13.9392 85.7021 13.4402C85.5986 12.9413 85.4839 12.4203 85.358 11.8773H85.2741C85.1622 12.4203 85.0503 12.9442 84.9384 13.449C84.8265 13.9568 84.7006 14.4674 84.5608 14.9811L83.1341 20.7043ZM98.534 20.9684C97.9045 20.9684 97.3059 20.8437 96.738 20.5942C96.1729 20.3447 95.6736 19.9808 95.24 19.5024C94.8064 19.0269 94.4595 18.4399 94.1993 17.7414C93.942 17.0458 93.8133 16.2578 93.8133 15.3773C93.8133 14.4821 93.942 13.6853 94.1993 12.9868C94.4595 12.2912 94.8064 11.7012 95.24 11.217C95.6736 10.7327 96.1729 10.3658 96.738 10.1163C97.3059 9.86687 97.9045 9.74213 98.534 9.74213C99.1634 9.74213 99.7607 9.86687 100.326 10.1163C100.894 10.3658 101.394 10.7327 101.828 11.217C102.262 11.7012 102.607 12.2912 102.864 12.9868C103.125 13.6853 103.255 14.4821 103.255 15.3773C103.255 16.2578 103.125 17.0458 102.864 17.7414C102.607 18.4399 102.262 19.0269 101.828 19.5024C101.394 19.9808 100.894 20.3447 100.326 20.5942C99.7607 20.8437 99.1634 20.9684 98.534 20.9684ZM98.534 19.4716C98.9676 19.4716 99.3662 19.3718 99.7299 19.1722C100.094 18.9756 100.404 18.6968 100.661 18.3357C100.922 17.9777 101.122 17.5492 101.261 17.0502C101.401 16.5513 101.471 15.9936 101.471 15.3773C101.471 14.7609 101.401 14.1989 101.261 13.6911C101.122 13.1863 100.922 12.7505 100.661 12.3836C100.404 12.0167 100.094 11.7335 99.7299 11.5339C99.3662 11.3373 98.9676 11.239 98.534 11.239C98.1004 11.239 97.7017 11.3373 97.3381 11.5339C96.9744 11.7335 96.6625 12.0167 96.4023 12.3836C96.145 12.7505 95.9463 13.1863 95.8065 13.6911C95.6666 14.1989 95.5967 14.7609 95.5967 15.3773C95.5967 15.9936 95.6666 16.5513 95.8065 17.0502C95.9463 17.5492 96.145 17.9777 96.4023 18.3357C96.6625 18.6968 96.9744 18.9756 97.3381 19.1722C97.7017 19.3718 98.1004 19.4716 98.534 19.4716ZM107.656 20.7043H105.936V10.0063H107.363L107.51 11.9434H107.573C107.922 11.2683 108.346 10.7327 108.844 10.3365C109.342 9.94024 109.883 9.74213 110.468 9.74213C110.873 9.74213 111.237 9.81551 111.559 9.96226L111.223 11.5471C111.055 11.4884 110.901 11.4444 110.762 11.4151C110.622 11.3857 110.447 11.371 110.237 11.371C109.806 11.371 109.356 11.5545 108.886 11.9214C108.416 12.2882 108.006 12.9266 107.656 13.8364V20.7043ZM114.916 20.7043H113.216V5.03149H114.916V15.6414H114.979L119.322 10.0063H121.231L117.811 14.2987L121.693 20.7043H119.804L116.825 15.5534L114.916 17.8867V20.7043ZM126.266 20.9684C125.539 20.9684 124.847 20.829 124.189 20.5502C123.532 20.2714 122.958 19.9192 122.469 19.4936L123.329 18.2829C123.777 18.6645 124.234 18.9726 124.701 19.2074C125.171 19.4422 125.714 19.5596 126.329 19.5596C127.001 19.5596 127.504 19.3982 127.84 19.0754C128.176 18.7525 128.343 18.3563 128.343 17.8867C128.343 17.6079 128.274 17.3657 128.134 17.1603C127.994 16.9548 127.815 16.7743 127.597 16.6188C127.381 16.4662 127.134 16.3312 126.854 16.2138C126.574 16.0964 126.294 15.979 126.015 15.8616C125.651 15.7295 125.287 15.5783 124.924 15.4081C124.56 15.2408 124.235 15.0354 123.95 14.7918C123.662 14.5511 123.427 14.2693 123.245 13.9465C123.063 13.6236 122.972 13.2348 122.972 12.7798C122.972 12.3543 123.054 11.9536 123.216 11.578C123.375 11.2052 123.605 10.8824 123.904 10.6094C124.206 10.3394 124.574 10.1266 125.008 9.97106C125.441 9.81844 125.931 9.74213 126.476 9.74213C127.12 9.74213 127.711 9.85953 128.251 10.0943C128.788 10.3291 129.253 10.6153 129.644 10.9528L128.826 12.0975C128.476 11.8186 128.113 11.5912 127.735 11.4151C127.357 11.239 126.945 11.1509 126.497 11.1509C125.854 11.1509 125.381 11.305 125.079 11.6132C124.78 11.9214 124.63 12.2809 124.63 12.6918C124.63 12.9413 124.693 13.157 124.819 13.3389C124.945 13.5239 125.112 13.6853 125.322 13.8232C125.532 13.9641 125.774 14.0888 126.048 14.1974C126.32 14.309 126.602 14.4234 126.896 14.5408C127.259 14.6876 127.626 14.8417 127.995 15.0031C128.367 15.1645 128.7 15.3656 128.994 15.6062C129.288 15.8498 129.53 16.1477 129.72 16.4999C129.907 16.8521 130.001 17.2777 130.001 17.7766C130.001 18.2169 129.92 18.6278 129.758 19.0093C129.598 19.3909 129.36 19.7284 129.044 20.0219C128.731 20.3154 128.339 20.5473 127.869 20.7175C127.402 20.8848 126.868 20.9684 126.266 20.9684Z" fill="black"/>
</g>
</g>
</g>
</g>
<g clip-path="url(#clip7_1_927)">
<g clip-path="url(#clip8_1_927)">
<path d="M7.08088 24.1437C3.28553 24.1437 0.208984 20.9009 0.208984 16.9006V7.2431C0.208984 3.24274 3.28553 0 7.08088 0H16.2434C20.0388 0 23.1153 3.24274 23.1153 7.2431V16.9006C23.1153 20.9009 20.0388 24.1437 16.2434 24.1437H7.08088Z" fill="black"/>
<g clip-path="url(#clip9_1_927)">
<g clip-path="url(#clip10_1_927)">
<path d="M5.82825 14.1846C6.51472 14.2795 7.23713 13.6064 7.79762 13.2708C8.33549 12.9488 8.80049 12.5079 9.07451 11.9127C9.6171 10.7347 10.7533 9.17557 12.0855 9.09092C12.8327 9.04339 13.8731 8.97277 14.1985 9.83771C12.7282 10.122 12.8363 12.334 14.1347 12.818C14.6052 12.9934 15.3541 12.998 15.8605 12.9415C16.5637 12.8631 17.2154 12.247 17.9194 12.3417C18.1947 12.8492 17.6664 13.9347 17.5589 14.476C17.423 15.1605 16.9947 15.8459 16.6303 16.3635C16.2322 16.9292 15.6326 17.5824 15.0702 17.9957C14.4168 18.476 13.4698 18.6927 12.6941 18.8718C11.2147 19.2136 9.82827 18.7119 8.5574 18.0315C8.05704 17.7636 7.43756 17.4353 7.05403 16.9646C6.82954 16.6891 6.67822 16.3284 6.54508 16.0057C6.38215 15.6108 6.09769 15.2601 5.93562 14.8637C5.86318 14.6861 5.80864 14.4164 5.82825 14.2978" fill="white"/>
<path d="M11.662 19.3151C7.93198 19.3151 4.89746 16.0659 4.89746 12.072C4.89746 8.07814 7.93198 4.82886 11.662 4.82886C15.392 4.82886 18.4265 8.07814 18.4265 12.072C18.4265 16.0659 15.392 19.3151 11.662 19.3151ZM11.662 5.58335C8.32668 5.58335 5.61328 8.49417 5.61328 12.072C5.61328 15.6498 8.32668 18.5606 11.662 18.5606C14.9973 18.5606 17.7107 15.6498 17.7107 12.072C17.7107 8.49417 14.9973 5.58335 11.662 5.58335Z" fill="white"/>
<path d="M6.10478 14.4841C5.84436 14.4841 5.5682 14.4327 5.26855 14.3095L5.5284 13.6067C6.25625 13.9053 6.78553 13.6032 7.51824 13.1849C7.61302 13.1309 7.70951 13.0757 7.80872 13.0207C8.48417 12.6459 9.08475 11.3799 9.37337 10.7714C10.0379 9.37066 11.5488 8.37126 12.8816 8.4458C13.7428 8.49409 14.4059 8.9999 14.7011 9.83331L14.9097 10.4223L14.3186 10.3393C14.0793 10.3053 13.8779 10.3625 13.7196 10.5081C13.512 10.6992 13.3873 11.0331 13.3861 11.4016C13.3837 12.1866 13.9788 12.4746 14.4783 12.5783C15.0851 12.7043 15.8706 12.6362 16.58 12.3966C16.7919 12.3249 16.9817 12.2306 17.1651 12.1392C17.4842 11.9803 17.8144 11.816 18.2489 11.7717L18.3176 12.5228C18.0072 12.5543 17.7587 12.678 17.4708 12.8214C17.2759 12.9184 17.055 13.0284 16.7983 13.115C15.979 13.3918 15.06 13.4677 14.3402 13.3186C13.2915 13.1013 12.6672 12.3838 12.6703 11.399C12.6722 10.808 12.883 10.276 13.249 9.93954C13.4046 9.79649 13.5813 9.69448 13.7737 9.63563C13.5021 9.31271 13.1383 9.21569 12.8434 9.19909C11.9261 9.14869 10.6117 9.84749 10.0135 11.1087C9.49821 12.195 8.91481 13.2593 8.14215 13.6881C8.04552 13.7417 7.95146 13.7956 7.85912 13.8483C7.29104 14.1727 6.7453 14.4841 6.10478 14.4841Z" fill="white"/>
</g>
</g>
</g>
</g>
</g>
</g>
</g>
<defs>
<clipPath id="clip0_1_927">
<rect width="135" height="24" fill="white" transform="translate(-0.0820312 0.0717773)"/>
</clipPath>
<clipPath id="clip1_1_927">
<rect width="134.418" height="24.1437" fill="white" transform="translate(0.208984)"/>
</clipPath>
<clipPath id="clip2_1_927">
<rect width="134.418" height="24.1437" fill="white" transform="translate(0.208984)"/>
</clipPath>
<clipPath id="clip3_1_927">
<rect width="99" height="16" fill="white" transform="translate(31.001 5)"/>
</clipPath>
<clipPath id="clip4_1_927">
<rect width="99" height="16" fill="white" transform="translate(31.001 5)"/>
</clipPath>
<clipPath id="clip5_1_927">
<rect width="99" height="16" fill="white" transform="translate(31.001 5)"/>
</clipPath>
<clipPath id="clip6_1_927">
<rect width="99" height="16" fill="white" transform="translate(31.001 5)"/>
</clipPath>
<clipPath id="clip7_1_927">
<rect width="22.9063" height="24.1437" fill="white" transform="translate(0.208984)"/>
</clipPath>
<clipPath id="clip8_1_927">
<rect width="22.9063" height="24.1437" fill="white" transform="translate(0.208984)"/>
</clipPath>
<clipPath id="clip9_1_927">
<rect width="13.5291" height="14.4862" fill="white" transform="translate(4.89746 4.82886)"/>
</clipPath>
<clipPath id="clip10_1_927">
<rect width="13.5291" height="14.4862" fill="white" transform="translate(4.89746 4.82886)"/>
</clipPath>
</defs>
</svg>
