<svg width="50" height="50" viewBox="0 0 50 50" fill="none" xmlns="http://www.w3.org/2000/svg">
<path d="M37.2119 44.4595L33.9253 18.2324H34.709C35.5337 18.2324 36.2021 17.564 36.2021 16.7393V12.7656C36.2021 8.20508 32.5054 4.5083 27.9448 4.5083H23.29C21.0908 4.5083 19.3076 6.2915 19.3076 8.49072V8.50488C19.3076 8.77978 19.5303 9.00244 19.8052 9.00244H20.0645C20.0645 9.00244 18.6313 17.3623 22.8828 17.4297V17.7344C22.8828 18.0093 23.1055 18.2319 23.3804 18.2319H23.6406L22.1836 24.3945C22.1348 24.6021 21.959 24.7559 21.7471 24.7754C17.6768 25.146 14.4883 28.5679 14.4883 32.7344C14.4883 35.4214 15.8145 37.7983 17.8481 39.2476C17.9912 39.3496 18.0718 39.5186 18.0576 39.6938L17.6699 44.5493C17.5776 45.708 18.4927 46.6992 19.6548 46.6992H35.2358C36.4341 46.6987 37.3608 45.6484 37.2119 44.4595ZM24.4004 30.2236L23.4272 31.9072L21.8501 34.6357C21.4741 35.2861 20.5352 35.2861 20.1592 34.6357L18.582 31.9072L17.6089 30.2236C17.1411 29.4141 17.9688 28.4731 18.8315 28.834L20.6274 29.5854C20.7468 29.6355 20.875 29.6613 21.0044 29.6613C21.1338 29.6613 21.262 29.6355 21.3813 29.5854L23.1772 28.834C24.0405 28.4727 24.8687 29.4141 24.4004 30.2236Z" fill="#FFFA9F"/>
<path d="M37.1299 44.2163L33.9609 18.9302H34.2871C35.3101 18.9302 36.1426 18.0977 36.1426 17.0747V13.1772C36.1426 8.49609 32.334 4.6875 27.6528 4.6875H23.0869C20.7178 4.6875 18.79 6.61523 18.79 8.98438V8.99853C18.79 9.41602 19.083 9.76563 19.4736 9.85498C19.2959 11.1904 18.9194 15.2148 20.4951 17.1138C20.9692 17.6851 21.5752 18.0205 22.2998 18.1152C22.3267 18.4917 22.5913 18.8022 22.9443 18.8989L21.6211 24.4941C21.6113 24.5347 21.5776 24.5649 21.5376 24.5684C19.5015 24.7539 17.6162 25.6885 16.228 27.2002C14.8315 28.7217 14.0625 30.6978 14.0625 32.7642C14.0625 35.4199 15.356 37.9272 17.522 39.4707C17.5513 39.4917 17.5674 39.5249 17.5649 39.5591L17.1846 44.3218C17.1328 44.9717 17.3564 45.6191 17.7988 46.0981C18.2412 46.5771 18.8687 46.8521 19.521 46.8521H34.8042C35.4761 46.8521 36.1167 46.563 36.5615 46.0591C36.7814 45.8097 36.9458 45.5165 37.0437 45.1988C37.1417 44.8811 37.1711 44.5462 37.1299 44.2163ZM19.5713 8.98389C19.5713 7.04541 21.1484 5.46826 23.0869 5.46826H27.6528C31.9033 5.46826 35.3613 8.92627 35.3613 13.1768V17.0742C35.3613 17.6665 34.8794 18.1484 34.2871 18.1484H23.1758C23.1221 18.1484 23.0781 18.1045 23.0781 18.0508V11.4395C23.0781 10.147 22.0269 9.0957 20.7344 9.0957H19.6689C19.6152 9.0957 19.5713 9.05176 19.5713 8.99805V8.98389ZM21.0967 16.6147C19.7026 14.9351 20.105 11.0278 20.2603 9.87695H20.7344C21.5962 9.87695 22.2969 10.5776 22.2969 11.4395V17.3242C21.8154 17.2383 21.4204 17.0044 21.0967 16.6147ZM35.9761 45.5415C35.8294 45.7076 35.6492 45.8407 35.4472 45.9318C35.2453 46.023 35.0263 46.0702 34.8047 46.0703H19.5215C19.0806 46.0703 18.6729 45.8916 18.3735 45.5679C18.0742 45.2441 17.9287 44.8232 17.9639 44.3838L18.3442 39.6211C18.3687 39.3149 18.2275 39.0137 17.9761 38.8345C16.0151 37.437 14.8447 35.168 14.8447 32.7642C14.8447 30.8936 15.541 29.1055 16.8047 27.7285C18.061 26.3599 19.7671 25.5142 21.6094 25.3462C21.9849 25.312 22.2954 25.0415 22.3823 24.6738L23.7407 18.9307H33.1748L36.3555 44.314C36.4106 44.7578 36.2725 45.2056 35.9761 45.5415Z" fill="#00AC97"/>
<path d="M29.2338 19.5332C29.1479 19.3354 28.9179 19.2451 28.7201 19.3306C28.5224 19.4165 28.4316 19.6465 28.5175 19.8442C28.5346 19.8833 30.2065 23.8066 28.9018 26.6416C28.3368 27.8691 27.2792 28.7295 25.7582 29.1982C25.6688 29.2257 25.5922 29.2844 25.5424 29.3636C25.4926 29.4428 25.4729 29.5372 25.4868 29.6297C25.5006 29.7222 25.5473 29.8066 25.6181 29.8677C25.689 29.9287 25.7794 29.9623 25.873 29.9624C25.911 29.9624 25.9501 29.9565 25.9882 29.9448C27.7318 29.4072 28.9511 28.4048 29.6127 26.9653C30.2167 25.6509 30.3412 23.9458 29.9731 22.0342C29.6977 20.6094 29.2524 19.5762 29.2338 19.5332Z" fill="#00AC97"/>
<path d="M21.0111 35.079C20.5526 35.079 20.1415 34.8417 19.912 34.4447L17.3617 30.0331C17.0843 29.5536 17.142 28.975 17.5077 28.559C17.8734 28.143 18.4398 28.0126 18.951 28.2265L20.7474 28.9779C20.9149 29.0483 21.1073 29.0483 21.2753 28.9779L23.0716 28.2265C23.5824 28.0126 24.1493 28.143 24.515 28.559C24.8807 28.975 24.9383 29.5536 24.661 30.0331L22.1107 34.4447C21.8807 34.8417 21.4696 35.079 21.0111 35.079ZM18.4535 28.7099C18.2386 28.7099 18.0599 28.8183 17.9476 28.9457C17.7909 29.1239 17.6879 29.4257 17.869 29.7392L20.4193 34.1508C20.5428 34.3647 20.764 34.4921 21.0111 34.4921C21.2582 34.4921 21.4794 34.3647 21.6029 34.1508L24.1532 29.7392C24.3343 29.4257 24.2313 29.1239 24.0746 28.9457C23.9178 28.7675 23.6312 28.6269 23.2972 28.7665L21.5008 29.518C21.1893 29.6484 20.8319 29.6484 20.5209 29.518L18.7245 28.7665C18.6297 28.727 18.5389 28.7099 18.4535 28.7099Z" fill="#F09595"/>
</svg>
