<svg width="50" height="50" viewBox="0 0 50 50" fill="none" xmlns="http://www.w3.org/2000/svg">
<path d="M38.8123 34.5625H42.8748V33.25H38.8123V31.1875H43.3748V29.8125H34.3123C34.4373 29.4375 34.6248 28.9375 34.8123 28.375L33.3748 28.125C32.8748 30 31.8748 31.5 30.3748 32.625L31.3123 33.8125C32.2498 33.125 33.0623 32.1875 33.6873 31.1875H37.4373V33.25H32.9998V37.5H30.6248V38.875H37.4373V42.125H38.8748V38.875H43.9373V37.5H38.8748V34.5625H38.8123ZM37.4373 37.4375H34.4373V34.5625H37.4373V37.4375ZM26.2498 35.5C25.9998 35.3125 25.6873 35.3125 25.4373 35.5L23.4998 36.875C23.8123 34.8125 24.1873 29.875 22.0623 24.8125C22.1873 24.9375 22.2498 25.0625 22.3748 25.1875C22.5623 25.4375 22.8748 25.5 23.1873 25.4375C23.4998 25.375 23.6873 25.125 23.6873 24.8125C23.9998 21.4375 23.4998 19 22.0623 17.625L21.9998 17.5625C24.8748 17.5 28.8748 18.0625 30.6248 18.375C30.9373 18.4375 31.2498 18.3125 31.3748 18.0625C31.5623 17.8125 31.5623 17.5 31.3748 17.25C28.0623 12.375 23.1873 12.6875 19.9373 13.625C23.8123 9.37505 23.3748 8.68755 23.1248 8.31255C22.9998 8.12505 22.8123 8.00005 22.5623 8.00005C17.9998 7.62505 15.3123 10.75 14.1248 12.5C12.9373 10.5 12.1873 9.93755 11.3748 10.25C10.9998 10.375 10.1248 10.75 10.9373 14.75C10.1248 14.6875 9.37481 14.875 8.62481 15.25C6.24981 16.625 5.68731 20.1875 5.62481 20.3125C5.56231 20.6875 5.81231 21.0625 6.18731 21.1875C6.56231 21.25 6.93731 21.0625 7.06231 20.6875C7.24981 20.0625 7.99981 19.75 8.81231 19.625C4.37481 24.5 8.12481 30 8.18731 30.0625C8.37481 30.3125 8.62481 30.4375 8.93731 30.375C9.24981 30.3125 9.43731 30.0625 9.49981 29.8125C10.0623 27.25 11.3748 23.1875 12.8748 21.5C14.1248 31.3125 17.6248 31.625 18.0623 31.625C18.4373 31.625 18.8123 31.3125 18.8123 30.9375C19.0623 26.625 18.8123 23.6875 18.3748 21.6875C22.1873 26.8125 22.3123 32.75 22.0623 35.6875L20.6248 33.4375C20.4998 33.25 20.2498 33.0625 19.9373 33.125C19.6873 33.125 19.4373 33.3125 19.3123 33.5625L17.9373 36.25L16.1873 34.3125C15.9998 34.0625 15.6248 34 15.3748 34.125C15.0623 34.25 14.8748 34.5 14.8748 34.8125V36.5625L12.6873 36C12.4373 35.9375 12.1248 36 11.9373 36.1875C11.7498 36.375 11.6873 36.6875 11.7498 36.9375L12.8748 40.5625C12.9998 40.875 13.2498 41.0625 13.5623 41.0625H24.9998C25.3748 41.0625 25.6873 40.8125 25.7498 40.4375L26.5623 36.25C26.6873 36 26.5623 35.6875 26.2498 35.5ZM16.9373 17.8125C16.8748 17.75 16.8123 17.75 16.7498 17.75C16.6248 17.6875 16.4998 17.6875 16.3748 17.625C16.0623 17.5 15.6873 17.6875 15.4998 18C15.3123 18.3125 15.4373 18.75 15.6873 18.9375C15.6873 18.9375 17.8123 20.8125 17.4373 29.6875C16.4998 28.9375 14.9373 26.625 14.2498 19.9375C14.2498 19.6875 14.0623 19.5 13.8748 19.375C13.7498 19.3125 13.6248 19.25 13.4998 19.25C13.3748 19.25 13.3123 19.25 13.1873 19.3125C10.9373 20.3125 9.31231 24.75 8.56231 27.4375C7.87481 25.5 7.56231 22.1875 11.2498 19.375C11.4998 19.1875 11.6248 18.875 11.4998 18.5625C11.4373 18.25 11.1873 18.0625 10.8748 18C10.7498 18 9.24981 17.8125 7.81231 18.25C8.12481 17.5625 8.62481 16.875 9.24981 16.5C9.87481 16.125 10.6248 16.0625 11.4998 16.375C11.7498 16.4375 12.0623 16.375 12.2498 16.25C12.4373 16.0625 12.5623 15.8125 12.4998 15.5C12.2498 14.25 12.0623 12.9375 11.9998 12.125C12.3123 12.5 12.7498 13.1875 13.3123 14.25C13.4373 14.5 13.7498 14.625 13.9998 14.625C14.2498 14.625 14.4998 14.4375 14.6248 14.1875C14.7498 14 16.8748 9.62505 21.3123 9.37505C20.4998 10.625 18.2498 13.0625 16.2498 15.0625C15.9998 15.3125 15.9373 15.75 16.1873 16.0625C16.4373 16.375 16.8123 16.4375 17.1873 16.25C17.4998 16.0625 24.1873 12.0625 28.8123 16.5625C25.9373 16.125 20.8123 15.625 18.6873 16.5C18.3748 16.625 18.1873 17 18.2498 17.375C18.3748 17.75 18.6873 17.9375 19.0623 17.9375C19.0623 17.9375 20.0623 17.8125 20.9373 18.625C21.6873 19.375 22.1248 20.625 22.1873 22.3125C21.1873 20.75 20.1248 19.0625 16.9373 17.8125ZM24.4373 39.625H14.1873L13.6248 37.75L15.4373 38.1875C15.6873 38.25 15.8748 38.1875 16.0623 38.0625C16.2498 37.9375 16.3748 37.6875 16.3748 37.5V36.75L17.4998 38.0625C17.6873 38.25 17.9373 38.3125 18.1248 38.3125C18.3748 38.25 18.5623 38.125 18.6873 37.9375L19.9998 35.3125L21.7498 37.8125C21.8123 38 21.9373 38.1875 22.1248 38.3125L22.2498 38.5C22.4998 38.8125 22.9373 38.9375 23.3123 38.6875L24.7498 37.6875L24.4373 39.625ZM44.1873 17.8125C43.8748 17.3125 43.3123 17 42.8748 17.125L40.9373 17.25C40.8123 15.875 40.6873 14.625 39.9373 13.375C38.8123 11.4375 36.5623 10 33.7498 9.43755L32.1873 9.06255C31.6248 9.00005 31.1248 9.25004 30.8748 9.75004C30.8748 9.75004 30.8748 9.81255 30.8123 9.81255C30.5623 10.375 30.8748 11.0625 31.3748 11.3125L32.3748 11.8125C34.3123 12.8125 35.6248 14.25 35.7498 15.5625C35.8123 16.0625 35.8123 17 35.7498 17.5L34.1873 17.625C33.5623 17.625 33.0623 18.0625 32.9373 18.5625C32.7498 19.0625 32.8748 19.625 33.2498 20L33.3123 20.0625L37.9998 23.625C38.2498 23.875 38.6248 24 38.9373 24H38.9998C39.4373 24 39.7498 23.75 39.9998 23.5L44.0623 19.375C44.3748 18.9375 44.4998 18.3125 44.1873 17.8125ZM38.8748 22.4375L34.4373 19.0625L36.1873 18.9375C36.6873 18.9375 37.1248 18.5625 37.1248 18L37.1873 17.5625C37.2498 16.9375 37.2498 16 37.1873 15.375C37.0623 13.8125 35.8748 12.25 34.0623 11C36.1248 11.5625 37.8123 12.6875 38.6248 14.0625C39.2498 15.0625 39.3748 16.1875 39.4373 17.5L39.4998 18C39.5623 18.375 39.8748 18.6875 40.3123 18.6875L42.7498 18.5L38.8748 22.4375Z" fill="#5F57C1"/>
</svg>
