<svg width="42" height="37" viewBox="0 0 42 37" fill="none" xmlns="http://www.w3.org/2000/svg">
<path d="M33.5999 31.4501H9.2749C8.2249 31.4501 7.5249 30.8334 7.5249 29.9084V20.1959C7.5249 13.4126 13.8249 8.01672 21.3499 8.01672C28.8749 8.01672 35.1749 13.5667 35.1749 20.1959V29.9084C35.3499 30.8334 34.4749 31.4501 33.5999 31.4501ZM11.0249 28.3667H31.6749V20.1959C31.6749 15.1084 26.9499 11.1001 21.3499 11.1001C15.7499 11.1001 11.0249 15.2626 11.0249 20.1959V28.3667Z" fill="#883939"/>
<path d="M39.375 36.2292H3.5C2.45 36.2292 1.75 35.6125 1.75 34.6875C1.75 31.2959 4.9 28.3667 8.925 28.3667H34.125C37.975 28.3667 41.3 31.1417 41.3 34.6875C41.125 35.6125 40.425 36.2292 39.375 36.2292ZM5.775 33.1459H37.275C36.575 32.2209 35.525 31.45 34.125 31.45H8.925C7.525 31.45 6.3 32.2209 5.775 33.1459Z" fill="#883939"/>
<path d="M13.65 22.2C12.6 22.2 11.9 21.5833 11.9 20.6583C11.9 15.8791 16.45 11.8708 21.875 11.8708C22.925 11.8708 23.625 12.4875 23.625 13.4125C23.625 14.3375 22.925 14.9541 21.875 14.9541C18.375 14.9541 15.4 17.575 15.4 20.6583C15.4 21.5833 14.525 22.2 13.65 22.2ZM21.525 7.55413C20.475 7.55413 19.775 6.93746 19.775 6.01246V3.08329C19.775 2.15829 20.475 1.54163 21.525 1.54163C22.575 1.54163 23.275 2.15829 23.275 3.08329V6.01246C23.275 6.93746 22.4 7.55413 21.525 7.55413ZM10.5 10.7916C9.97505 10.7916 9.62505 10.6375 9.27505 10.3291L6.82505 8.17079C6.12505 7.55413 6.12505 6.62913 6.82505 6.01246C7.52505 5.39579 8.57505 5.39579 9.27505 6.01246L11.725 8.17079C12.425 8.78746 12.425 9.71246 11.725 10.3291C11.375 10.6375 10.85 10.7916 10.5 10.7916ZM32.375 10.7916C31.85 10.7916 31.5001 10.6375 31.1501 10.3291C30.4501 9.71246 30.4501 8.78746 31.1501 8.17079L33.6001 6.01246C34.3001 5.39579 35.3501 5.39579 36.0501 6.01246C36.7501 6.62913 36.7501 7.55413 36.0501 8.17079L33.6001 10.3291C33.2501 10.6375 32.9 10.7916 32.375 10.7916Z" fill="#D15959"/>
</svg>
