<svg width="40" height="41" viewBox="0 0 40 41" fill="none" xmlns="http://www.w3.org/2000/svg">
<path d="M2.5 4.27083C2.5 3.33125 3.25 2.5625 4.16667 2.5625H7.5C8.41667 2.5625 9.16667 3.33125 9.16667 4.27083C9.16667 5.21042 8.41667 5.97917 7.5 5.97917H5.83333V15.375C5.83333 19.6458 9.16667 23.0625 13.3333 23.0625C17.5 23.0625 20.8333 19.6458 20.8333 15.375V5.97917H19.1667C18.25 5.97917 17.5 5.21042 17.5 4.27083C17.5 3.33125 18.25 2.5625 19.1667 2.5625H22.5C23.4167 2.5625 24.1667 3.33125 24.1667 4.27083V15.375C24.1667 20.9271 20.1667 25.5396 15 26.3083V27.3333C15 31.6042 18.3333 35.0208 22.5 35.0208C26.6667 35.0208 30 31.6042 30 27.3333V26.2229C27.5833 25.4542 25.8333 23.2333 25.8333 20.5C25.8333 17.1688 28.4167 14.5208 31.6667 14.5208C34.9167 14.5208 37.5 17.1688 37.5 20.5C37.5 23.2333 35.75 25.4542 33.3333 26.2229V27.3333C33.3333 33.4833 28.5 38.4375 22.5 38.4375C16.5 38.4375 11.6667 33.4833 11.6667 27.3333V26.3083C6.5 25.5396 2.5 20.9271 2.5 15.375V4.27083ZM29.1667 20.5C29.1667 21.9521 30.25 23.0625 31.6667 23.0625C33.0833 23.0625 34.1667 21.9521 34.1667 20.5C34.1667 19.0479 33.0833 17.9375 31.6667 17.9375C30.25 17.9375 29.1667 19.0479 29.1667 20.5Z" fill="#2F3CF4"/>
</svg>
