<svg width="45" height="41" viewBox="0 0 45 41" fill="none" xmlns="http://www.w3.org/2000/svg">
<path d="M21.7969 26.2656C21.4453 26.2656 21.0938 26.1375 20.8125 25.8813L14.4844 20.1156C13.9219 19.6031 13.9219 18.8344 14.4844 18.3219C15.0469 17.8094 15.8906 17.8094 16.4531 18.3219L21.7969 23.1906L30.6562 15.1188C31.2187 14.6063 32.0625 14.6063 32.625 15.1188C33.1875 15.6313 33.1875 16.4 32.625 16.9125L22.7813 25.8813C22.5 26.1375 22.1484 26.2656 21.7969 26.2656Z" fill="#58FFA5"/>
<path d="M36.5625 37.1562H8.4375C6.11719 37.1562 4.21875 35.4266 4.21875 33.3125V8.96875C4.21875 6.85469 6.11719 5.125 8.4375 5.125C9.21094 5.125 9.84375 5.70156 9.84375 6.40625C9.84375 7.11094 9.21094 7.6875 8.4375 7.6875C7.66406 7.6875 7.03125 8.26406 7.03125 8.96875V33.3125C7.03125 34.0172 7.66406 34.5938 8.4375 34.5938H36.5625C37.3359 34.5938 37.9688 34.0172 37.9688 33.3125V8.96875C37.9688 8.26406 37.3359 7.6875 36.5625 7.6875C35.7891 7.6875 35.1562 7.11094 35.1562 6.40625C35.1562 5.70156 35.7891 5.125 36.5625 5.125C38.8828 5.125 40.7812 6.85469 40.7812 8.96875V33.3125C40.7812 35.4266 38.8828 37.1562 36.5625 37.1562Z" fill="#58FFA5"/>
<path d="M14.0625 8.96875C13.2891 8.96875 12.6562 8.39219 12.6562 7.6875V5.125C12.6562 4.42031 13.2891 3.84375 14.0625 3.84375C14.8359 3.84375 15.4688 4.42031 15.4688 5.125V7.6875C15.4688 8.39219 14.8359 8.96875 14.0625 8.96875ZM25.3125 7.6875H19.6875C18.9141 7.6875 18.2812 7.11094 18.2812 6.40625C18.2812 5.70156 18.9141 5.125 19.6875 5.125H25.3125C26.0859 5.125 26.7188 5.70156 26.7188 6.40625C26.7188 7.11094 26.0859 7.6875 25.3125 7.6875ZM30.9375 8.96875C30.1641 8.96875 29.5312 8.39219 29.5312 7.6875V5.125C29.5312 4.42031 30.1641 3.84375 30.9375 3.84375C31.7109 3.84375 32.3438 4.42031 32.3438 5.125V7.6875C32.3438 8.39219 31.7109 8.96875 30.9375 8.96875Z" fill="#58FFA5"/>
</svg>
