<svg width="48" height="50" viewBox="0 0 48 50" fill="none" xmlns="http://www.w3.org/2000/svg">
<path d="M5.67235 10.3437L13.5917 10.363V12.7486C13.5917 13.5031 14.1778 14.1137 14.9021 14.1137C15.6265 14.1137 16.2126 13.5031 16.2126 12.7486V10.3694L26.2756 10.394V12.7486C26.2756 13.5031 26.8617 14.1137 27.5861 14.1137C28.3104 14.1137 28.8966 13.5031 28.8966 12.7486V10.4004L35.7076 10.417V22.3217H38.3286V10.417C38.3286 8.8706 37.1217 7.61349 35.6372 7.61349H28.8966V4.94994C28.8966 4.19607 28.3104 3.58484 27.5861 3.58484C26.8617 3.58484 26.2756 4.19607 26.2756 4.94994V7.61349H16.2126V4.94994C16.2126 4.19607 15.6265 3.58484 14.9021 3.58484C14.1778 3.58484 13.5917 4.19607 13.5917 4.94994V7.61349H5.67235C4.18778 7.61349 2.98096 8.8706 2.98096 10.417V36.7725C2.98096 38.3189 4.18778 39.5774 5.67235 39.5774H21.525V36.8472L5.60194 36.7725L5.67235 10.3437Z" fill="#FF8668"/>
<path d="M9.98193 20.0701C9.98189 20.3472 10.0343 20.6216 10.136 20.8776C10.2378 21.1336 10.387 21.3662 10.5751 21.5622C10.7631 21.7581 10.9864 21.9136 11.2322 22.0196C11.4779 22.1256 11.7413 22.1802 12.0074 22.1802C12.2734 22.1802 12.5368 22.1256 12.7825 22.0196C13.0283 21.9136 13.2516 21.7581 13.4397 21.5622C13.6277 21.3662 13.7769 21.1336 13.8787 20.8776C13.9805 20.6216 14.0328 20.3472 14.0328 20.0701C14.0328 19.793 13.9805 19.5186 13.8787 19.2626C13.7769 19.0066 13.6277 18.774 13.4397 18.578C13.2516 18.3821 13.0283 18.2266 12.7825 18.1206C12.5368 18.0145 12.2734 17.96 12.0074 17.96C11.7413 17.96 11.4779 18.0145 11.2322 18.1206C10.9864 18.2266 10.7631 18.3821 10.5751 18.578C10.387 18.774 10.2378 19.0066 10.136 19.2626C10.0343 19.5186 9.98189 19.793 9.98193 20.0701Z" fill="#FF8668"/>
<path d="M18.9233 20.0701C18.9233 20.3472 18.9757 20.6216 19.0774 20.8776C19.1792 21.1336 19.3284 21.3662 19.5165 21.5622C19.7045 21.7581 19.9278 21.9136 20.1736 22.0196C20.4193 22.1256 20.6828 22.1802 20.9488 22.1802C21.2148 22.1802 21.4782 22.1256 21.7239 22.0196C21.9697 21.9136 22.193 21.7581 22.3811 21.5622C22.5691 21.3662 22.7183 21.1336 22.8201 20.8776C22.9219 20.6216 22.9742 20.3472 22.9742 20.0701C22.9742 19.793 22.9219 19.5186 22.8201 19.2626C22.7183 19.0066 22.5691 18.774 22.3811 18.578C22.193 18.3821 21.9697 18.2266 21.7239 18.1206C21.4782 18.0145 21.2148 17.96 20.9488 17.96C20.6828 17.96 20.4193 18.0145 20.1736 18.1206C19.9278 18.2266 19.7045 18.3821 19.5165 18.578C19.3284 18.774 19.1792 19.0066 19.0774 19.2626C18.9757 19.5186 18.9233 19.793 18.9233 20.0701Z" fill="#FF8668"/>
<path d="M27.603 20.0701C27.603 20.3472 27.6553 20.6216 27.7571 20.8776C27.8589 21.1336 28.0081 21.3662 28.1962 21.5622C28.3842 21.7581 28.6075 21.9136 28.8533 22.0196C29.099 22.1256 29.3624 22.1802 29.6284 22.1802C29.8945 22.1802 30.1579 22.1256 30.4036 22.0196C30.6494 21.9136 30.8727 21.7581 31.0607 21.5622C31.2488 21.3662 31.398 21.1336 31.4998 20.8776C31.6016 20.6216 31.6539 20.3472 31.6539 20.0701C31.6539 19.793 31.6016 19.5186 31.4998 19.2626C31.398 19.0066 31.2488 18.774 31.0607 18.578C30.8727 18.3821 30.6494 18.2266 30.4036 18.1206C30.1579 18.0145 29.8945 17.96 29.6284 17.96C29.3624 17.96 29.099 18.0145 28.8533 18.1206C28.6075 18.2266 28.3842 18.3821 28.1962 18.578C28.0081 18.774 27.8589 19.0066 27.7571 19.2626C27.6553 19.5186 27.603 19.793 27.603 20.0701Z" fill="#FF8668"/>
<path d="M9.98193 28.305C9.98189 28.582 10.0343 28.8564 10.136 29.1124C10.2378 29.3685 10.387 29.6011 10.5751 29.797C10.7631 29.993 10.9864 30.1484 11.2322 30.2545C11.4779 30.3605 11.7413 30.4151 12.0074 30.4151C12.2734 30.4151 12.5368 30.3605 12.7825 30.2545C13.0283 30.1484 13.2516 29.993 13.4397 29.797C13.6277 29.6011 13.7769 29.3685 13.8787 29.1124C13.9805 28.8564 14.0328 28.582 14.0328 28.305C14.0328 28.0279 13.9805 27.7535 13.8787 27.4975C13.7769 27.2415 13.6277 27.0088 13.4397 26.8129C13.2516 26.6169 13.0283 26.4615 12.7825 26.3555C12.5368 26.2494 12.2734 26.1948 12.0074 26.1948C11.7413 26.1948 11.4779 26.2494 11.2322 26.3555C10.9864 26.4615 10.7631 26.6169 10.5751 26.8129C10.387 27.0088 10.2378 27.2415 10.136 27.4975C10.0343 27.7535 9.98189 28.0279 9.98193 28.305Z" fill="#FF8668"/>
<path d="M18.9233 28.305C18.9233 28.582 18.9757 28.8564 19.0774 29.1124C19.1792 29.3685 19.3284 29.6011 19.5165 29.797C19.7045 29.993 19.9278 30.1484 20.1736 30.2545C20.4193 30.3605 20.6828 30.4151 20.9488 30.4151C21.2148 30.4151 21.4782 30.3605 21.7239 30.2545C21.9697 30.1484 22.193 29.993 22.3811 29.797C22.5691 29.6011 22.7183 29.3685 22.8201 29.1124C22.9219 28.8564 22.9742 28.582 22.9742 28.305C22.9742 28.0279 22.9219 27.7535 22.8201 27.4975C22.7183 27.2415 22.5691 27.0088 22.3811 26.8129C22.193 26.6169 21.9697 26.4615 21.7239 26.3555C21.4782 26.2494 21.2148 26.1948 20.9488 26.1948C20.6828 26.1948 20.4193 26.2494 20.1736 26.3555C19.9278 26.4615 19.7045 26.6169 19.5165 26.8129C19.3284 27.0088 19.1792 27.2415 19.0774 27.4975C18.9757 27.7535 18.9233 28.0279 18.9233 28.305Z" fill="#FF8668"/>
<path d="M34.6798 25.2678C29.0794 25.2678 24.5234 30.0137 24.5234 35.8473C24.5234 41.681 29.0795 46.4269 34.6798 46.4269C40.2801 46.4269 44.8362 41.681 44.8362 35.8473C44.8362 30.0136 40.2801 25.2678 34.6798 25.2678ZM34.6798 43.6967C30.5243 43.6967 27.1444 40.1759 27.1444 35.8473C27.1444 31.5188 30.5244 27.998 34.6798 27.998C38.8352 27.998 42.2152 31.5188 42.2152 35.8473C42.2152 40.1759 38.8352 43.6967 34.6798 43.6967Z" fill="#FF8668"/>
<path d="M38.5126 34.4822H35.9901V31.3707C35.9901 30.6162 35.404 30.0056 34.6796 30.0056C33.9553 30.0056 33.3691 30.6162 33.3691 31.3707V35.8473C33.3691 36.6018 33.9553 37.2124 34.6796 37.2124C34.6895 37.2124 34.6993 37.2119 34.7091 37.2116C34.7189 37.2118 34.7286 37.2124 34.7385 37.2124H38.5125C39.2369 37.2124 39.823 36.6018 39.823 35.8473C39.8231 35.0927 39.237 34.4822 38.5126 34.4822Z" fill="#FF8668"/>
</svg>
