<svg width="140" height="24" viewBox="0 0 140 24" fill="none" xmlns="http://www.w3.org/2000/svg">
<g clip-path="url(#clip0_4_44)">
<g clip-path="url(#clip1_4_44)">
<g clip-path="url(#clip2_4_44)">
<g clip-path="url(#clip3_4_44)">
<g clip-path="url(#clip4_4_44)">
<g clip-path="url(#clip5_4_44)">
<g clip-path="url(#clip6_4_44)">
<path d="M38.6866 20.6427H36.4544L33.3202 6.24582H35.2593L36.8151 14.0807C36.9504 14.8708 37.0932 15.6462 37.2436 16.407C37.3939 17.1678 37.5367 17.9433 37.672 18.7333H37.7622C37.9275 17.9433 38.1004 17.1634 38.2808 16.3939C38.4612 15.6272 38.634 14.8561 38.7994 14.0807L40.8513 6.24582H42.5649L44.6168 14.0807C44.7972 14.8415 44.9776 15.6096 45.158 16.3851C45.3383 17.1605 45.5187 17.9433 45.6991 18.7333H45.7893C45.9246 17.9433 46.0599 17.1634 46.1952 16.3939C46.3305 15.6272 46.4733 14.8561 46.6236 14.0807L48.1794 6.24582H49.9832L46.9167 20.6427H44.6619L42.4296 11.9738C42.2943 11.4179 42.1711 10.8721 42.0598 10.3366C41.9456 9.80407 41.8283 9.25979 41.7081 8.70382H41.6179C41.4976 9.25979 41.3744 9.80407 41.2481 10.3366C41.1188 10.8721 40.9941 11.4179 40.8738 11.9738L38.6866 20.6427ZM54.8987 20.906C53.9818 20.906 53.2182 20.6427 52.6079 20.116C52.0006 19.5893 51.6969 18.8431 51.6969 17.8774C51.6969 16.707 52.2305 15.8101 53.2978 15.1868C54.3651 14.5664 56.0712 14.1319 58.4162 13.8832C58.4162 13.5467 58.3817 13.2175 58.3125 12.8956C58.2464 12.5737 58.1306 12.2884 57.9653 12.0397C57.7999 11.791 57.5699 11.589 57.2753 11.434C56.9837 11.2818 56.6124 11.2057 56.1614 11.2057C55.5301 11.2057 54.9363 11.3228 54.3801 11.5569C53.8239 11.791 53.3279 12.0543 52.892 12.3469L52.1704 11.096C52.6815 10.7741 53.3053 10.4625 54.0419 10.1611C54.7785 9.86259 55.5902 9.71335 56.4771 9.71335C57.815 9.71335 58.7845 10.1113 59.3858 10.9072C59.9871 11.7061 60.2877 12.7712 60.2877 14.1026V20.6427H58.7545L58.5966 19.3698H58.529C58.0029 19.7941 57.4392 20.1555 56.8379 20.4539C56.2366 20.7553 55.5902 20.906 54.8987 20.906ZM55.4399 19.4576C55.966 19.4576 56.4621 19.3361 56.9281 19.0933C57.3941 18.8533 57.8901 18.4992 58.4162 18.0311V15.0683C57.4993 15.1853 56.7281 15.3243 56.1028 15.4853C55.4805 15.6462 54.9769 15.8364 54.5921 16.0559C54.2103 16.2753 53.9322 16.5285 53.7578 16.8152C53.5864 17.0991 53.5008 17.4092 53.5008 17.7458C53.5008 18.3603 53.6887 18.7992 54.0645 19.0625C54.4403 19.3259 54.8987 19.4576 55.4399 19.4576ZM68.2698 20.6427H66.1006L62.1547 9.97671H64.0713L66.1503 16.0339C66.3156 16.5606 66.484 17.0874 66.6553 17.6141C66.8297 18.1408 66.9996 18.6602 67.1649 19.1723H67.2551C67.4205 18.6602 67.5858 18.1408 67.7512 17.6141C67.9165 17.0874 68.0804 16.5606 68.2427 16.0339L70.3217 9.97671H72.1481L68.2698 20.6427ZM78.705 20.906C77.9685 20.906 77.2815 20.7773 76.6441 20.5198C76.0038 20.2652 75.4476 19.8994 74.9756 19.4225C74.5006 18.9484 74.1278 18.3676 73.8572 17.6799C73.5866 16.9923 73.4513 16.2095 73.4513 15.3316C73.4513 14.4538 73.5911 13.6666 73.8707 12.9702C74.1473 12.2767 74.5156 11.6885 74.9756 11.2057C75.4326 10.7229 75.9542 10.3527 76.5404 10.0952C77.1267 9.84064 77.7355 9.71335 78.3668 9.71335C79.0583 9.71335 79.6791 9.8304 80.2293 10.0645C80.7765 10.2986 81.2349 10.6351 81.6047 11.074C81.9715 11.513 82.2526 12.0397 82.448 12.6542C82.6434 13.2687 82.7412 13.9563 82.7412 14.7171C82.7412 14.9073 82.7382 15.0932 82.7321 15.2746C82.7231 15.4589 82.7036 15.6169 82.6735 15.7486H75.2777C75.3529 16.8898 75.7182 17.7926 76.3736 18.4568C77.026 19.124 77.8783 19.4576 78.9305 19.4576C79.4566 19.4576 79.9422 19.38 80.3871 19.2249C80.8291 19.0728 81.253 18.8723 81.6588 18.6236L82.3127 19.8087C81.8317 20.1013 81.2981 20.3574 80.7118 20.5768C80.1256 20.7963 79.4566 20.906 78.705 20.906ZM75.2552 14.4538H81.1177C81.1177 13.3711 80.8817 12.5474 80.4097 11.9826C79.9347 11.4208 79.2687 11.1399 78.4119 11.1399C78.0211 11.1399 77.6498 11.213 77.298 11.3593C76.9433 11.5056 76.6231 11.7207 76.3375 12.0046C76.0519 12.2913 75.8159 12.6395 75.6295 13.0492C75.4401 13.4589 75.3153 13.9271 75.2552 14.4538ZM89.3478 20.6427H87.1831L84.1391 9.97671H86.0332L87.6566 16.1437C87.7769 16.6557 87.8896 17.1532 87.9949 17.636C88.1001 18.1188 88.2053 18.609 88.3105 19.1064H88.4007C88.521 18.609 88.6412 18.1145 88.7615 17.6229C88.8818 17.1342 89.0095 16.6411 89.1448 16.1437L90.8359 9.97671H92.6398L94.3534 16.1437C94.4887 16.6557 94.621 17.1532 94.7503 17.636C94.8766 18.1188 94.9998 18.609 95.1201 19.1064H95.2103C95.3305 18.609 95.4433 18.1188 95.5485 17.636C95.6537 17.1532 95.7665 16.6557 95.8867 16.1437L97.4876 9.97671H99.2464L96.3151 20.6427H94.0603L92.4819 14.9147C92.3467 14.4026 92.2219 13.8978 92.1077 13.4004C91.9964 12.9029 91.8732 12.3835 91.7379 11.8422H91.6477C91.5274 12.3835 91.4072 12.9058 91.2869 13.4091C91.1666 13.9154 91.0313 14.4245 90.881 14.9366L89.3478 20.6427ZM105.898 20.906C105.222 20.906 104.578 20.7817 103.968 20.533C103.361 20.2842 102.824 19.9214 102.358 19.4444C101.892 18.9704 101.519 18.3851 101.24 17.6887C100.963 16.9952 100.825 16.2095 100.825 15.3316C100.825 14.4392 100.963 13.6447 101.24 12.9483C101.519 12.2548 101.892 11.6666 102.358 11.1838C102.824 10.7009 103.361 10.3352 103.968 10.0864C104.578 9.83772 105.222 9.71335 105.898 9.71335C106.575 9.71335 107.216 9.83772 107.824 10.0864C108.434 10.3352 108.972 10.7009 109.438 11.1838C109.904 11.6666 110.275 12.2548 110.552 12.9483C110.832 13.6447 110.971 14.4392 110.971 15.3316C110.971 16.2095 110.832 16.9952 110.552 17.6887C110.275 18.3851 109.904 18.9704 109.438 19.4444C108.972 19.9214 108.434 20.2842 107.824 20.533C107.216 20.7817 106.575 20.906 105.898 20.906ZM105.898 19.4137C106.364 19.4137 106.792 19.3142 107.183 19.1152C107.574 18.9192 107.908 18.6412 108.184 18.2812C108.464 17.9243 108.679 17.497 108.829 16.9996C108.98 16.5021 109.055 15.9461 109.055 15.3316C109.055 14.7171 108.98 14.1568 108.829 13.6505C108.679 13.1472 108.464 12.7127 108.184 12.3469C107.908 11.9812 107.574 11.6988 107.183 11.4998C106.792 11.3037 106.364 11.2057 105.898 11.2057C105.432 11.2057 105.004 11.3037 104.613 11.4998C104.222 11.6988 103.887 11.9812 103.607 12.3469C103.331 12.7127 103.117 13.1472 102.967 13.6505C102.817 14.1568 102.741 14.7171 102.741 15.3316C102.741 15.9461 102.817 16.5021 102.967 16.9996C103.117 17.497 103.331 17.9243 103.607 18.2812C103.887 18.6412 104.222 18.9192 104.613 19.1152C105.004 19.3142 105.432 19.4137 105.898 19.4137ZM115.702 20.6427H113.853V9.97671H115.386L115.544 11.908H115.612C115.988 11.235 116.443 10.7009 116.978 10.3059C117.513 9.91087 118.095 9.71335 118.723 9.71335C119.159 9.71335 119.55 9.78651 119.896 9.93282L119.535 11.513C119.355 11.4544 119.189 11.4105 119.039 11.3813C118.889 11.352 118.701 11.3374 118.475 11.3374C118.012 11.3374 117.528 11.5203 117.023 11.8861C116.518 12.2518 116.078 12.8883 115.702 13.7954V20.6427ZM123.504 20.6427H121.677V5.01682H123.504V15.595H123.571L128.239 9.97671H130.291L126.615 14.2563L130.787 20.6427H128.757L125.556 15.5072L123.504 17.8335V20.6427ZM135.702 20.906C134.921 20.906 134.176 20.767 133.47 20.4891C132.763 20.2111 132.147 19.8599 131.621 19.4356L132.545 18.2286C133.026 18.609 133.518 18.9162 134.02 19.1503C134.525 19.3844 135.108 19.5015 135.77 19.5015C136.491 19.5015 137.033 19.3405 137.393 19.0186C137.754 18.6968 137.934 18.3017 137.934 17.8335C137.934 17.5556 137.859 17.3141 137.709 17.1093C137.559 16.9045 137.366 16.7245 137.132 16.5694C136.9 16.4173 136.634 16.2827 136.334 16.1656C136.033 16.0486 135.732 15.9315 135.432 15.8145C135.041 15.6828 134.65 15.5321 134.259 15.3624C133.868 15.1956 133.52 14.9907 133.213 14.7479C132.903 14.5079 132.651 14.227 132.455 13.9051C132.26 13.5832 132.162 13.1955 132.162 12.742C132.162 12.3177 132.249 11.9182 132.424 11.5437C132.595 11.1721 132.842 10.8502 133.163 10.578C133.488 10.3088 133.883 10.0967 134.349 9.9416C134.815 9.78944 135.341 9.71335 135.928 9.71335C136.619 9.71335 137.255 9.8304 137.835 10.0645C138.412 10.2986 138.912 10.5839 139.332 10.9204L138.453 12.0616C138.077 11.7836 137.686 11.5569 137.281 11.3813C136.875 11.2057 136.431 11.1179 135.95 11.1179C135.259 11.1179 134.751 11.2716 134.426 11.5788C134.104 11.8861 133.943 12.2445 133.943 12.6542C133.943 12.9029 134.011 13.118 134.146 13.2994C134.282 13.4838 134.462 13.6447 134.688 13.7822C134.913 13.9227 135.173 14.047 135.468 14.1553C135.759 14.2665 136.063 14.3806 136.379 14.4977C136.769 14.644 137.163 14.7976 137.56 14.9586C137.96 15.1195 138.318 15.3199 138.633 15.5599C138.949 15.8028 139.209 16.0998 139.414 16.4509C139.615 16.8021 139.716 17.2264 139.716 17.7238C139.716 18.1627 139.629 18.5724 139.454 18.9528C139.283 19.3332 139.027 19.6697 138.688 19.9623C138.351 20.255 137.93 20.4861 137.425 20.6559C136.923 20.8226 136.349 20.906 135.702 20.906Z" fill="black"/>
</g>
</g>
</g>
</g>
<g clip-path="url(#clip7_4_44)">
<g clip-path="url(#clip8_4_44)">
<path d="M7.61327 24.0716C3.5344 24.0716 0.228027 20.8386 0.228027 16.8502V7.22164C0.228027 3.23324 3.5344 0.000213623 7.61327 0.000213623H17.4603C21.5391 0.000213623 24.8455 3.23324 24.8455 7.22164V16.8502C24.8455 20.8386 21.5391 24.0716 17.4603 24.0716H7.61327Z" fill="black"/>
<g clip-path="url(#clip9_4_44)">
<g clip-path="url(#clip10_4_44)">
<path d="M6.26703 14.1422C7.00478 14.2368 7.78116 13.5657 8.38352 13.2311C8.96157 12.91 9.4613 12.4704 9.75579 11.877C10.3389 10.7025 11.5599 9.1481 12.9918 9.0637C13.7948 9.01631 14.9128 8.9459 15.2626 9.80826C13.6824 10.0917 13.7986 12.2971 15.1939 12.7796C15.6997 12.9545 16.5045 12.9591 17.0487 12.9028C17.8045 12.8246 18.5048 12.2103 19.2614 12.3048C19.5572 12.8107 18.9895 13.893 18.874 14.4327C18.7279 15.1151 18.2676 15.7984 17.876 16.3145C17.4481 16.8785 16.8038 17.5298 16.1994 17.9418C15.4972 18.4207 14.4794 18.6367 13.6458 18.8153C12.0558 19.1561 10.5659 18.6559 9.20005 17.9775C8.66231 17.7105 7.99656 17.3831 7.58437 16.9138C7.34312 16.6391 7.18049 16.2796 7.0374 15.9578C6.86231 15.564 6.55659 15.2144 6.38242 14.8192C6.30457 14.6421 6.24595 14.3733 6.26703 14.255" fill="white"/>
<path d="M12.5368 19.2573C8.52817 19.2573 5.26697 16.0179 5.26697 12.0359C5.26697 8.05406 8.52817 4.8145 12.5368 4.8145C16.5455 4.8145 19.8067 8.05406 19.8067 12.0359C19.8067 16.0179 16.5455 19.2573 12.5368 19.2573ZM12.5368 5.56673C8.95236 5.56673 6.03626 8.46884 6.03626 12.0359C6.03626 15.603 8.95236 18.5051 12.5368 18.5051C16.1213 18.5051 19.0374 15.603 19.0374 12.0359C19.0374 8.46884 16.1213 5.56673 12.5368 5.56673Z" fill="white"/>
<path d="M6.56459 14.4409C6.28472 14.4409 5.98792 14.3896 5.66589 14.2669L5.94515 13.5661C6.72737 13.8638 7.29619 13.5626 8.08364 13.1456C8.18549 13.0917 8.28919 13.0367 8.39582 12.9819C9.12173 12.6082 9.76717 11.346 10.0773 10.7394C10.7916 9.34278 12.4152 8.34637 13.8477 8.42069C14.7731 8.46883 15.4858 8.97313 15.8031 9.80405L16.0272 10.3912L15.392 10.3085C15.1349 10.2746 14.9184 10.3317 14.7482 10.4768C14.5251 10.6673 14.3911 11.0002 14.3899 11.3676C14.3873 12.1503 15.0268 12.4375 15.5637 12.5408C16.2157 12.6664 17.0599 12.5986 17.8223 12.3597C18.05 12.2882 18.254 12.1942 18.4511 12.103C18.7941 11.9446 19.1489 11.7808 19.6159 11.7367L19.6897 12.4854C19.3561 12.5169 19.089 12.6403 18.7796 12.7832C18.5702 12.8799 18.3328 12.9896 18.057 13.076C17.1764 13.3519 16.1888 13.4275 15.4152 13.2789C14.2882 13.0623 13.6172 12.3469 13.6206 11.3651C13.6226 10.7758 13.8492 10.2455 14.2425 9.90996C14.4097 9.76734 14.5996 9.66563 14.8064 9.60696C14.5145 9.28501 14.1235 9.18827 13.8066 9.17172C12.8208 9.12147 11.4082 9.81819 10.7653 11.0756C10.2115 12.1587 9.58454 13.2198 8.75416 13.6473C8.6503 13.7008 8.54922 13.7545 8.44998 13.807C7.83946 14.1304 7.25295 14.4409 6.56459 14.4409Z" fill="white"/>
</g>
</g>
</g>
</g>
</g>
</g>
</g>
<defs>
<clipPath id="clip0_4_44">
<rect width="145.085" height="23.9282" fill="white" transform="translate(-0.0848389 0.0718384)"/>
</clipPath>
<clipPath id="clip1_4_44">
<rect width="144.459" height="24.0714" fill="white" transform="translate(0.228027 0.000213623)"/>
</clipPath>
<clipPath id="clip2_4_44">
<rect width="144.459" height="24.0714" fill="white" transform="translate(0.228027 0.000213623)"/>
</clipPath>
<clipPath id="clip3_4_44">
<rect width="106.396" height="15.9521" fill="white" transform="translate(33.3202 4.98537)"/>
</clipPath>
<clipPath id="clip4_4_44">
<rect width="106.396" height="15.9521" fill="white" transform="translate(33.3202 4.98537)"/>
</clipPath>
<clipPath id="clip5_4_44">
<rect width="106.396" height="15.9521" fill="white" transform="translate(33.3202 4.98537)"/>
</clipPath>
<clipPath id="clip6_4_44">
<rect width="106.396" height="15.9521" fill="white" transform="translate(33.3202 4.98537)"/>
</clipPath>
<clipPath id="clip7_4_44">
<rect width="24.6175" height="24.0714" fill="white" transform="translate(0.228027 0.000213623)"/>
</clipPath>
<clipPath id="clip8_4_44">
<rect width="24.6175" height="24.0714" fill="white" transform="translate(0.228027 0.000213623)"/>
</clipPath>
<clipPath id="clip9_4_44">
<rect width="14.5397" height="14.4428" fill="white" transform="translate(5.26697 4.8145)"/>
</clipPath>
<clipPath id="clip10_4_44">
<rect width="14.5397" height="14.4428" fill="white" transform="translate(5.26697 4.8145)"/>
</clipPath>
</defs>
</svg>
