<svg width="141" height="25" viewBox="0 0 141 25" fill="none" xmlns="http://www.w3.org/2000/svg">
<g clip-path="url(#clip0_4_8)">
<g clip-path="url(#clip1_4_8)">
<g clip-path="url(#clip2_4_8)">
<g clip-path="url(#clip3_4_8)">
<path d="M37.5377 21.4388H35.3589L32.2997 6.48653H34.1924L35.711 14.6237C35.843 15.4442 35.9824 16.2496 36.1291 17.0397C36.2759 17.8299 36.4152 18.6352 36.5473 19.4558H36.6353C36.7967 18.6352 36.9655 17.8253 37.1415 17.026C37.3176 16.2298 37.4863 15.429 37.6477 14.6237L39.6505 6.48653H41.3231L43.3258 14.6237C43.5019 15.4138 43.6779 16.2116 43.854 17.0169C44.0301 17.8223 44.2061 18.6352 44.3822 19.4558H44.4702C44.6023 18.6352 44.7343 17.8253 44.8664 17.026C44.9984 16.2298 45.1378 15.429 45.2845 14.6237L46.8031 6.48653H48.5638L45.5707 21.4388H43.3698L41.191 12.4355C41.059 11.8581 40.9387 11.2913 40.8301 10.7352C40.7186 10.182 40.6041 9.61677 40.4868 9.03935H40.3987C40.2814 9.61677 40.161 10.182 40.0378 10.7352C39.9116 11.2913 39.7898 11.8581 39.6725 12.4355L37.5377 21.4388ZM53.3616 21.7123C52.4666 21.7123 51.7212 21.4388 51.1255 20.8917C50.5328 20.3447 50.2364 19.5697 50.2364 18.5669C50.2364 17.3512 50.7573 16.4197 51.799 15.7724C52.8407 15.1281 54.506 14.6768 56.7948 14.4185C56.7948 14.069 56.7611 13.7271 56.6936 13.3928C56.629 13.0585 56.5161 12.7622 56.3547 12.5039C56.1933 12.2456 55.9688 12.0359 55.6812 11.8748C55.3966 11.7168 55.0342 11.6378 54.594 11.6378C53.9778 11.6378 53.3982 11.7593 52.8554 12.0024C52.3125 12.2456 51.8283 12.5191 51.4028 12.823L50.6986 11.5238C51.1974 11.1895 51.8063 10.8658 52.5252 10.5528C53.2442 10.2428 54.0365 10.0878 54.9021 10.0878C56.2079 10.0878 57.1543 10.5011 57.7412 11.3278C58.3281 12.1574 58.6215 13.2637 58.6215 14.6464V21.4388H57.125L56.9709 20.1168H56.9049C56.3913 20.5574 55.8411 20.9328 55.2543 21.2428C54.6674 21.5558 54.0365 21.7123 53.3616 21.7123ZM53.8897 20.208C54.4033 20.208 54.8875 20.0818 55.3423 19.8296C55.7971 19.5804 56.2813 19.2127 56.7948 18.7264V15.6493C55.8998 15.7709 55.1472 15.9153 54.5368 16.0824C53.9294 16.2496 53.4378 16.4471 53.0622 16.675C52.6896 16.903 52.4181 17.1658 52.2479 17.4637C52.0807 17.7585 51.997 18.0806 51.997 18.4301C51.997 19.0683 52.1804 19.5242 52.5473 19.7977C52.9141 20.0712 53.3616 20.208 53.8897 20.208ZM66.4124 21.4388H64.2952L60.4438 10.3613H62.3145L64.3436 16.6522C64.505 17.1993 64.6694 17.7463 64.8366 18.2933C65.0068 18.8404 65.1726 19.3798 65.334 19.9116H65.422C65.5834 19.3798 65.7448 18.8404 65.9062 18.2933C66.0676 17.7463 66.2275 17.1993 66.386 16.6522L68.4152 10.3613H70.1978L66.4124 21.4388ZM76.5978 21.7123C75.8789 21.7123 75.2084 21.5786 74.5863 21.3111C73.9612 21.0467 73.4184 20.6669 72.9576 20.1715C72.494 19.6792 72.1301 19.0759 71.866 18.3617C71.6019 17.6475 71.4699 16.8346 71.4699 15.9229C71.4699 15.0111 71.6063 14.1936 71.8792 13.4703C72.1492 12.7501 72.5087 12.1392 72.9576 11.6378C73.4037 11.1363 73.9128 10.7519 74.485 10.4844C75.0572 10.22 75.6515 10.0878 76.2677 10.0878C76.9426 10.0878 77.5486 10.2094 78.0856 10.4525C78.6196 10.6956 79.0671 11.0451 79.4281 11.501C79.7861 11.9569 80.0604 12.5039 80.2512 13.1421C80.4419 13.7803 80.5373 14.4945 80.5373 15.2846C80.5373 15.4822 80.5343 15.6752 80.5285 15.8636C80.5197 16.0551 80.5006 16.2192 80.4712 16.3559H73.2526C73.3259 17.5412 73.6825 18.4787 74.3222 19.1686C74.9589 19.8615 75.7908 20.208 76.8179 20.208C77.3314 20.208 77.8053 20.1274 78.2396 19.9663C78.671 19.8083 79.0847 19.6001 79.4809 19.3418L80.1191 20.5726C79.6496 20.8765 79.1287 21.1425 78.5565 21.3704C77.9843 21.5983 77.3314 21.7123 76.5978 21.7123ZM73.2305 15.0111H78.9527C78.9527 13.8867 78.7223 13.0312 78.2616 12.4446C77.798 11.8611 77.148 11.5694 76.3117 11.5694C75.9302 11.5694 75.5678 11.6454 75.2245 11.7973C74.8782 11.9493 74.5657 12.1726 74.2869 12.4674C74.0082 12.7653 73.7778 13.1269 73.5959 13.5524C73.411 13.9778 73.2892 14.4641 73.2305 15.0111ZM86.9857 21.4388H84.8729L81.9018 10.3613H83.7505L85.3351 16.7662C85.4524 17.298 85.5625 17.8147 85.6652 18.3161C85.7679 18.8176 85.8706 19.3266 85.9733 19.8433H86.0613C86.1787 19.3266 86.2961 18.813 86.4135 18.3025C86.5308 17.7949 86.6556 17.2828 86.7876 16.7662L88.4382 10.3613H90.1989L91.8715 16.7662C92.0035 17.298 92.1327 17.8147 92.2588 18.3161C92.3821 18.8176 92.5024 19.3266 92.6198 19.8433H92.7078C92.8252 19.3266 92.9352 18.8176 93.0379 18.3161C93.1406 17.8147 93.2507 17.298 93.3681 16.7662L94.9306 10.3613H96.6473L93.7862 21.4388H91.5854L90.0448 15.4898C89.9128 14.9579 89.791 14.4337 89.6795 13.9171C89.5709 13.4004 89.4506 12.861 89.3185 12.2988H89.2305C89.1131 12.861 88.9958 13.4035 88.8784 13.9262C88.761 14.4519 88.6289 14.9807 88.4822 15.5126L86.9857 21.4388ZM103.14 21.7123C102.479 21.7123 101.851 21.5831 101.256 21.3248C100.663 21.0665 100.139 20.6896 99.6844 20.1943C99.2296 19.7019 98.8657 19.0941 98.5928 18.3708C98.3228 17.6506 98.1878 16.8346 98.1878 15.9229C98.1878 14.9959 98.3228 14.1708 98.5928 13.4475C98.8657 12.7273 99.2296 12.1164 99.6844 11.615C100.139 11.1135 100.663 10.7336 101.256 10.4753C101.851 10.217 102.479 10.0878 103.14 10.0878C103.8 10.0878 104.426 10.217 105.019 10.4753C105.615 10.7336 106.14 11.1135 106.595 11.615C107.05 12.1164 107.412 12.7273 107.682 13.4475C107.955 14.1708 108.092 14.9959 108.092 15.9229C108.092 16.8346 107.955 17.6506 107.682 18.3708C107.412 19.0941 107.05 19.7019 106.595 20.1943C106.14 20.6896 105.615 21.0665 105.019 21.3248C104.426 21.5831 103.8 21.7123 103.14 21.7123ZM103.14 20.1624C103.595 20.1624 104.013 20.059 104.394 19.8524C104.776 19.6488 105.101 19.3601 105.371 18.9862C105.644 18.6155 105.854 18.1718 106.001 17.6551C106.147 17.1385 106.221 16.5611 106.221 15.9229C106.221 15.2846 106.147 14.7027 106.001 14.1769C105.854 13.6542 105.644 13.2029 105.371 12.823C105.101 12.4431 104.776 12.1498 104.394 11.9432C104.013 11.7396 103.595 11.6378 103.14 11.6378C102.685 11.6378 102.267 11.7396 101.885 11.9432C101.504 12.1498 101.177 12.4431 100.904 12.823C100.634 13.2029 100.425 13.6542 100.279 14.1769C100.132 14.7027 100.059 15.2846 100.059 15.9229C100.059 16.5611 100.132 17.1385 100.279 17.6551C100.425 18.1718 100.634 18.6155 100.904 18.9862C101.177 19.3601 101.504 19.6488 101.885 19.8524C102.267 20.059 102.685 20.1624 103.14 20.1624ZM112.709 21.4388H110.904V10.3613H112.401L112.555 12.3671H112.621C112.988 11.6681 113.432 11.1135 113.955 10.7032C114.477 10.293 115.045 10.0878 115.658 10.0878C116.083 10.0878 116.465 10.1638 116.802 10.3158L116.45 11.9569C116.274 11.8961 116.113 11.8505 115.966 11.8201C115.819 11.7897 115.636 11.7745 115.416 11.7745C114.964 11.7745 114.492 11.9645 113.999 12.3443C113.506 12.7242 113.076 13.3852 112.709 14.3273V21.4388ZM120.324 21.4388H118.541V5.21011H120.324V16.1964H120.39L124.945 10.3613H126.948L123.361 14.806L127.432 21.4388H125.452L122.326 16.1052L120.324 18.5213V21.4388ZM132.23 21.7123C131.467 21.7123 130.741 21.5679 130.051 21.2792C129.362 20.9905 128.76 20.6258 128.247 20.1852L129.149 18.9315C129.618 19.3266 130.098 19.6457 130.588 19.8888C131.081 20.132 131.651 20.2535 132.296 20.2535C133 20.2535 133.529 20.0864 133.881 19.7521C134.233 19.4178 134.409 19.0075 134.409 18.5213C134.409 18.2326 134.336 17.9818 134.189 17.7691C134.042 17.5564 133.854 17.3695 133.625 17.2084C133.399 17.0504 133.14 16.9106 132.846 16.789C132.553 16.6674 132.259 16.5459 131.966 16.4243C131.585 16.2875 131.203 16.131 130.822 15.9548C130.44 15.7815 130.1 15.5688 129.8 15.3166C129.498 15.0674 129.252 14.7756 129.061 14.4413C128.87 14.107 128.775 13.7043 128.775 13.2333C128.775 12.7926 128.86 12.3778 129.03 11.9888C129.197 11.6028 129.438 11.2685 129.752 10.9859C130.069 10.7063 130.455 10.4859 130.91 10.3249C131.364 10.1668 131.878 10.0878 132.45 10.0878C133.125 10.0878 133.746 10.2094 134.312 10.4525C134.876 10.6956 135.363 10.992 135.773 11.3414L134.915 12.5267C134.548 12.238 134.167 12.0024 133.771 11.8201C133.375 11.6378 132.942 11.5466 132.472 11.5466C131.797 11.5466 131.301 11.7061 130.984 12.0252C130.67 12.3443 130.513 12.7166 130.513 13.1421C130.513 13.4004 130.58 13.6238 130.712 13.8122C130.844 14.0037 131.02 14.1708 131.24 14.3137C131.46 14.4595 131.714 14.5887 132.001 14.7011C132.286 14.8166 132.582 14.9352 132.89 15.0567C133.272 15.2087 133.656 15.3682 134.044 15.5354C134.434 15.7025 134.783 15.9107 135.091 16.1599C135.399 16.4121 135.653 16.7206 135.853 17.0853C136.049 17.45 136.148 17.8907 136.148 18.4073C136.148 18.8632 136.062 19.2886 135.892 19.6837C135.725 20.0788 135.476 20.4283 135.144 20.7322C134.815 21.0361 134.405 21.2762 133.912 21.4525C133.421 21.6257 132.861 21.7123 132.23 21.7123Z" fill="white"/>
</g>
</g>
</g>
</g>
<g clip-path="url(#clip4_4_8)">
<g clip-path="url(#clip5_4_8)">
<path d="M7.2084 25C3.2272 25 0 21.6423 0 17.5V7.5C0 3.35775 3.2272 0 7.2084 0H16.8196C20.8008 0 24.028 3.35775 24.028 7.5V17.5C24.028 21.6423 20.8008 25 16.8196 25H7.2084Z" fill="#45AEE9"/>
<g clip-path="url(#clip6_4_8)">
<g clip-path="url(#clip7_4_8)">
<path d="M5.8944 14.6875C6.61449 14.7858 7.37227 14.0888 7.96021 13.7413C8.52441 13.4078 9.01218 12.9513 9.29962 12.335C9.86878 11.1152 11.0606 9.50078 12.4581 9.41313C13.2419 9.36391 14.3332 9.29078 14.6745 10.1864C13.1322 10.4808 13.2456 12.7713 14.6076 13.2723C15.1012 13.4541 15.8867 13.4588 16.4179 13.4003C17.1556 13.3191 17.8392 12.6811 18.5776 12.7792C18.8664 13.3047 18.3122 14.4288 18.1994 14.9892C18.0569 15.698 17.6076 16.4077 17.2254 16.9436C16.8078 17.5294 16.1788 18.2058 15.589 18.6338C14.9036 19.1311 13.9101 19.3555 13.0965 19.5409C11.5446 19.8948 10.0903 19.3753 8.75718 18.6708C8.23232 18.3934 7.58251 18.0534 7.1802 17.5661C6.94472 17.2808 6.78599 16.9073 6.64632 16.5731C6.47542 16.1642 6.17703 15.8011 6.00703 15.3906C5.93104 15.2067 5.87382 14.9275 5.8944 14.8047" fill="white"/>
<path d="M12.014 20C8.10135 20 4.91824 16.6356 4.91824 12.5C4.91824 8.36453 8.10135 5 12.014 5C15.9267 5 19.1098 8.36453 19.1098 12.5C19.1098 16.6356 15.9267 20 12.014 20ZM12.014 5.78125C8.51539 5.78125 5.66912 8.79531 5.66912 12.5C5.66912 16.2047 8.51539 19.2188 12.014 19.2188C15.5126 19.2188 18.3589 16.2047 18.3589 12.5C18.3589 8.79531 15.5126 5.78125 12.014 5.78125Z" fill="white"/>
<path d="M6.18482 14.9978C5.91165 14.9978 5.62196 14.9445 5.30765 14.817L5.58022 14.0892C6.34371 14.3984 6.8989 14.0856 7.6675 13.6525C7.76691 13.5966 7.86813 13.5394 7.9722 13.4825C8.68073 13.0944 9.31071 11.7834 9.61347 11.1534C10.3106 9.70296 11.8954 8.66812 13.2935 8.7453C14.1968 8.7953 14.8924 9.31905 15.2021 10.182L15.4209 10.7919L14.8008 10.7059C14.5499 10.6708 14.3386 10.73 14.1725 10.8808C13.9547 11.0786 13.8239 11.4244 13.8227 11.8059C13.8202 12.6187 14.4444 12.917 14.9684 13.0244C15.6049 13.1548 16.4289 13.0844 17.173 12.8362C17.3952 12.762 17.5944 12.6644 17.7867 12.5697C18.1215 12.4051 18.4678 12.235 18.9236 12.1892L18.9957 12.9669C18.6701 12.9995 18.4094 13.1276 18.1074 13.2761C17.903 13.3766 17.6713 13.4905 17.402 13.5801C16.5425 13.8667 15.5786 13.9453 14.8235 13.7909C13.7235 13.5659 13.0685 12.823 13.0718 11.8033C13.0738 11.1912 13.295 10.6405 13.6789 10.292C13.8421 10.1439 14.0274 10.0383 14.2292 9.97734C13.9444 9.64296 13.5628 9.54249 13.2534 9.5253C12.2912 9.47312 10.9125 10.1967 10.2849 11.5026C9.74442 12.6275 9.13246 13.7295 8.32196 14.1736C8.22059 14.2291 8.12193 14.2848 8.02507 14.3394C7.42917 14.6753 6.8567 14.9978 6.18482 14.9978Z" fill="white"/>
</g>
</g>
</g>
</g>
<defs>
<clipPath id="clip0_4_8">
<rect width="103.848" height="16.5675" fill="white" transform="translate(32.2997 5.17746)"/>
</clipPath>
<clipPath id="clip1_4_8">
<rect width="103.848" height="16.5675" fill="white" transform="translate(32.2997 5.17746)"/>
</clipPath>
<clipPath id="clip2_4_8">
<rect width="103.848" height="16.5675" fill="white" transform="translate(32.2997 5.17746)"/>
</clipPath>
<clipPath id="clip3_4_8">
<rect width="103.848" height="16.5675" fill="white" transform="translate(32.2997 5.17746)"/>
</clipPath>
<clipPath id="clip4_4_8">
<rect width="24.028" height="25" fill="white"/>
</clipPath>
<clipPath id="clip5_4_8">
<rect width="24.028" height="25" fill="white"/>
</clipPath>
<clipPath id="clip6_4_8">
<rect width="14.1915" height="15" fill="white" transform="translate(4.91824 5)"/>
</clipPath>
<clipPath id="clip7_4_8">
<rect width="14.1915" height="15" fill="white" transform="translate(4.91824 5)"/>
</clipPath>
</defs>
</svg>
