<svg width="114" height="20" viewBox="0 0 114 20" fill="none" xmlns="http://www.w3.org/2000/svg">
<g clip-path="url(#clip0_4_43)">
<g clip-path="url(#clip1_4_43)">
<g clip-path="url(#clip2_4_43)">
<g clip-path="url(#clip3_4_43)">
<g clip-path="url(#clip4_4_43)">
<g clip-path="url(#clip5_4_43)">
<g clip-path="url(#clip6_4_43)">
<g clip-path="url(#clip7_4_43)">
<path d="M31.5019 17.2022H29.6842L27.1321 5.20483H28.7111L29.978 11.7339C30.0881 12.3923 30.2044 13.0385 30.3268 13.6725C30.4492 14.3065 30.5655 14.9527 30.6757 15.6111H30.7491C30.8838 14.9527 31.0245 14.3029 31.1714 13.6615C31.3183 13.0226 31.4591 12.3801 31.5937 11.7339L33.2645 5.20483H34.6599L36.3308 11.7339C36.4776 12.3679 36.6245 13.008 36.7714 13.6542C36.9183 14.3004 37.0652 14.9527 37.2121 15.6111H37.2855C37.3957 14.9527 37.5058 14.3029 37.616 13.6615C37.7262 13.0226 37.8424 12.3801 37.9648 11.7339L39.2317 5.20483H40.7006L38.2035 17.2022H36.3675L34.5498 9.97818C34.4396 9.51487 34.3392 9.06009 34.2487 8.61385C34.1556 8.17004 34.0602 7.71648 33.9622 7.25317H33.8888C33.7909 7.71648 33.6905 8.17004 33.5877 8.61385C33.4824 9.06009 33.3808 9.51487 33.2829 9.97818L31.5019 17.2022ZM44.7032 17.4217C43.9565 17.4217 43.3347 17.2022 42.8378 16.7633C42.3432 16.3244 42.096 15.7025 42.096 14.8978C42.096 13.9224 42.5305 13.175 43.3996 12.6556C44.2687 12.1387 45.6579 11.7766 47.5675 11.5693C47.5675 11.2889 47.5393 11.0145 47.483 10.7463C47.4291 10.4781 47.3349 10.2403 47.2002 10.033C47.0656 9.82578 46.8783 9.65752 46.6384 9.52828C46.4009 9.40148 46.0986 9.33808 45.7314 9.33808C45.2173 9.33808 44.7338 9.43562 44.2809 9.6307C43.828 9.82578 43.4241 10.0452 43.0691 10.2891L42.4816 9.24663C42.8977 8.9784 43.4057 8.7187 44.0055 8.46754C44.6053 8.21881 45.2663 8.09445 45.9884 8.09445C47.0778 8.09445 47.8673 8.42608 48.357 9.08935C48.8466 9.75506 49.0914 10.6427 49.0914 11.7522V17.2022H47.8429L47.7143 16.1415H47.6593C47.2308 16.4951 46.7718 16.7962 46.2822 17.0449C45.7926 17.2961 45.2663 17.4217 44.7032 17.4217ZM45.1439 16.2146C45.5723 16.2146 45.9762 16.1134 46.3557 15.911C46.7351 15.7111 47.139 15.416 47.5675 15.0259V12.5569C46.8208 12.6544 46.1929 12.7703 45.6837 12.9044C45.1769 13.0385 44.7668 13.197 44.4535 13.3799C44.1426 13.5628 43.9161 13.7737 43.7741 14.0127C43.6346 14.2492 43.5648 14.5077 43.5648 14.7881C43.5648 15.3002 43.7178 15.666 44.0239 15.8854C44.3299 16.1049 44.7032 16.2146 45.1439 16.2146ZM55.591 17.2022H53.8248L50.6116 8.31391H52.1723L53.8651 13.3616C53.9998 13.8005 54.1369 14.2395 54.2764 14.6784C54.4184 15.1173 54.5567 15.5501 54.6914 15.9769H54.7648C54.8995 15.5501 55.0341 15.1173 55.1688 14.6784C55.3034 14.2395 55.4368 13.8005 55.569 13.3616L57.2619 8.31391H58.7491L55.591 17.2022ZM64.0883 17.4217C63.4886 17.4217 62.9292 17.3144 62.4102 17.0998C61.8887 16.8877 61.4358 16.5828 61.0515 16.1854C60.6647 15.7903 60.3611 15.3063 60.1408 14.7332C59.9205 14.1602 59.8103 13.5079 59.8103 12.7764C59.8103 12.0448 59.9242 11.3889 60.1518 10.8085C60.377 10.2306 60.6769 9.74043 61.0515 9.33808C61.4236 8.93573 61.8483 8.62726 62.3257 8.41267C62.8031 8.20052 63.2988 8.09445 63.8129 8.09445C64.376 8.09445 64.8815 8.19199 65.3295 8.38707C65.7751 8.58214 66.1484 8.86257 66.4495 9.22835C66.7482 9.59412 66.9771 10.033 67.1362 10.5451C67.2953 11.0572 67.3749 11.6303 67.3749 12.2643C67.3749 12.4228 67.3724 12.5776 67.3675 12.7288C67.3602 12.8824 67.3443 13.0141 67.3198 13.1238H61.2975C61.3587 14.0749 61.6562 14.8271 62.1899 15.3807C62.7211 15.9366 63.4151 16.2146 64.2719 16.2146C64.7004 16.2146 65.0957 16.15 65.458 16.0208C65.8179 15.894 66.1631 15.7269 66.4936 15.5197L67.026 16.5072C66.6343 16.7511 66.1998 16.9645 65.7224 17.1474C65.2451 17.3302 64.7004 17.4217 64.0883 17.4217ZM61.2792 12.0448H66.0529C66.0529 11.1426 65.8608 10.4561 65.4764 9.9855C65.0896 9.51731 64.5474 9.28321 63.8497 9.28321C63.5314 9.28321 63.2291 9.34417 62.9426 9.4661C62.6538 9.58802 62.393 9.76725 62.1605 10.0038C61.9279 10.2428 61.7357 10.5329 61.584 10.8743C61.4297 11.2157 61.3281 11.6059 61.2792 12.0448ZM72.7546 17.2022H70.9919L68.5132 8.31391H70.0555L71.3775 13.453C71.4754 13.8798 71.5672 14.2943 71.6529 14.6967C71.7386 15.099 71.8243 15.5075 71.91 15.922H71.9834C72.0813 15.5075 72.1793 15.0954 72.2772 14.6857C72.3751 14.2785 72.4791 13.8676 72.5893 13.453L73.9664 8.31391H75.4352L76.8306 13.453C76.9408 13.8798 77.0485 14.2943 77.1538 14.6967C77.2566 15.099 77.357 15.5075 77.4549 15.922H77.5283C77.6262 15.5075 77.718 15.099 77.8037 14.6967C77.8894 14.2943 77.9812 13.8798 78.0791 13.453L79.3827 8.31391H80.8149L78.428 17.2022H76.5919L75.3067 12.4289C75.1965 12.0021 75.0949 11.5815 75.0019 11.1669C74.9113 10.7524 74.8109 10.3196 74.7008 9.86845H74.6273C74.5294 10.3196 74.4315 10.7548 74.3336 11.1743C74.2356 11.5961 74.1255 12.0204 74.0031 12.4472L72.7546 17.2022ZM86.2313 17.4217C85.6804 17.4217 85.1565 17.318 84.6596 17.1108C84.1651 16.9035 83.7281 16.6011 83.3486 16.2037C82.9692 15.8086 82.6656 15.3209 82.4379 14.7406C82.2127 14.1626 82.1001 13.5079 82.1001 12.7764C82.1001 12.0326 82.2127 11.3706 82.4379 10.7902C82.6656 10.2123 82.9692 9.72214 83.3486 9.31979C83.7281 8.91744 84.1651 8.61263 84.6596 8.40535C85.1565 8.19808 85.6804 8.09445 86.2313 8.09445C86.7821 8.09445 87.3047 8.19808 87.7993 8.40535C88.2962 8.61263 88.7344 8.91744 89.1139 9.31979C89.4933 9.72214 89.7957 10.2123 90.0209 10.7902C90.2486 11.3706 90.3624 12.0326 90.3624 12.7764C90.3624 13.5079 90.2486 14.1626 90.0209 14.7406C89.7957 15.3209 89.4933 15.8086 89.1139 16.2037C88.7344 16.6011 88.2962 16.9035 87.7993 17.1108C87.3047 17.318 86.7821 17.4217 86.2313 17.4217ZM86.2313 16.1781C86.6107 16.1781 86.9596 16.0951 87.2778 15.9293C87.5961 15.7659 87.8678 15.5343 88.093 15.2344C88.3207 14.9369 88.4957 14.5808 88.6181 14.1663C88.7405 13.7518 88.8017 13.2884 88.8017 12.7764C88.8017 12.2643 88.7405 11.7973 88.6181 11.3754C88.4957 10.956 88.3207 10.5939 88.093 10.2891C87.8678 9.98428 87.5961 9.74896 87.2778 9.58315C86.9596 9.41977 86.6107 9.33808 86.2313 9.33808C85.8518 9.33808 85.503 9.41977 85.1847 9.58315C84.8665 9.74896 84.5935 9.98428 84.3658 10.2891C84.1406 10.5939 83.9668 10.956 83.8444 11.3754C83.722 11.7973 83.6608 12.2643 83.6608 12.7764C83.6608 13.2884 83.722 13.7518 83.8444 14.1663C83.9668 14.5808 84.1406 14.9369 84.3658 15.2344C84.5935 15.5343 84.8665 15.7659 85.1847 15.9293C85.503 16.0951 85.8518 16.1781 86.2313 16.1781ZM94.2145 17.2022H92.7089V8.31391H93.9574L94.0859 9.92332H94.141C94.447 9.36246 94.8179 8.91744 95.2537 8.58824C95.6894 8.25905 96.1631 8.09445 96.6748 8.09445C97.0298 8.09445 97.348 8.15541 97.6295 8.27733L97.3358 9.59412C97.1889 9.54535 97.0542 9.50877 96.9318 9.48439C96.8094 9.46 96.6564 9.44781 96.4728 9.44781C96.0958 9.44781 95.7017 9.60022 95.2904 9.90503C94.8791 10.2098 94.5205 10.7402 94.2145 11.4961V17.2022ZM100.567 17.2022H99.08V4.18066H100.567V12.9958H100.622L104.423 8.31391H106.094L103.101 11.8802L106.498 17.2022H104.845L102.238 12.9227L100.567 14.8613V17.2022ZM110.5 17.4217C109.864 17.4217 109.258 17.3059 108.683 17.0742C108.107 16.8425 107.605 16.5499 107.177 16.1963L107.93 15.1905C108.322 15.5075 108.722 15.7635 109.131 15.9586C109.542 16.1537 110.017 16.2512 110.555 16.2512C111.143 16.2512 111.584 16.1171 111.877 15.8489C112.171 15.5806 112.318 15.2514 112.318 14.8613C112.318 14.6296 112.257 14.4284 112.134 14.2577C112.012 14.087 111.855 13.9371 111.664 13.8078C111.476 13.681 111.259 13.5689 111.014 13.4713C110.77 13.3738 110.525 13.2762 110.28 13.1787C109.962 13.069 109.643 12.9434 109.325 12.802C109.007 12.663 108.723 12.4923 108.473 12.2899C108.221 12.0899 108.016 11.8558 107.856 11.5876C107.697 11.3194 107.618 10.9963 107.618 10.6183C107.618 10.2647 107.689 9.93185 107.831 9.61972C107.97 9.31004 108.171 9.0418 108.433 8.81502C108.697 8.59068 109.019 8.41389 109.399 8.28465C109.778 8.15785 110.207 8.09445 110.684 8.09445C111.247 8.09445 111.765 8.19199 112.237 8.38707C112.707 8.58214 113.114 8.8199 113.456 9.10033L112.74 10.0513C112.434 9.81968 112.116 9.6307 111.786 9.48439C111.455 9.33808 111.094 9.26492 110.702 9.26492C110.139 9.26492 109.726 9.39294 109.461 9.64899C109.199 9.90503 109.068 10.2037 109.068 10.5451C109.068 10.7524 109.123 10.9316 109.233 11.0828C109.344 11.2364 109.49 11.3706 109.674 11.4852C109.858 11.6022 110.069 11.7059 110.309 11.7961C110.547 11.8887 110.794 11.9838 111.051 12.0814C111.369 12.2033 111.69 12.3313 112.013 12.4654C112.339 12.5996 112.63 12.7666 112.887 12.9666C113.144 13.169 113.356 13.4165 113.522 13.7091C113.687 14.0017 113.769 14.3553 113.769 14.7698C113.769 15.1356 113.698 15.477 113.556 15.794C113.416 16.111 113.208 16.3914 112.931 16.6353C112.657 16.8791 112.314 17.0718 111.903 17.2132C111.494 17.3522 111.027 17.4217 110.5 17.4217Z" fill="black"/>
</g>
</g>
</g>
</g>
<g clip-path="url(#clip8_4_43)">
<g clip-path="url(#clip9_4_43)">
<path d="M6.19937 20.0597C2.878 20.0597 0.185669 17.3655 0.185669 14.0418V6.01802C0.185669 2.69436 2.878 0.000167847 6.19937 0.000167847H14.2176C17.539 0.000167847 20.2313 2.69436 20.2313 6.01802V14.0418C20.2313 17.3655 17.539 20.0597 14.2176 20.0597H6.19937Z" fill="black"/>
<g clip-path="url(#clip10_4_43)">
<g clip-path="url(#clip11_4_43)">
<path d="M5.10314 11.7851C5.70388 11.864 6.33607 11.3047 6.82657 11.0259C7.29726 10.7583 7.70419 10.392 7.94399 9.89753C8.41882 8.91875 9.41309 7.62341 10.579 7.55308C11.2329 7.51358 12.1433 7.45491 12.4281 8.17354C11.1414 8.40974 11.236 10.2476 12.3722 10.6496C12.784 10.7954 13.4394 10.7992 13.8825 10.7523C14.4979 10.6871 15.0682 10.1752 15.6843 10.254C15.9252 10.6756 15.4629 11.5775 15.3688 12.0272C15.2499 12.5959 14.875 13.1653 14.5562 13.5954C14.2078 14.0654 13.6831 14.6081 13.1909 14.9515C12.6191 15.3506 11.7904 15.5306 11.1116 15.6794C9.81688 15.9634 8.60362 15.5465 7.49146 14.9812C7.05358 14.7587 6.51147 14.4859 6.17583 14.0949C5.97938 13.8659 5.84696 13.5663 5.73044 13.2981C5.58787 12.97 5.33892 12.6787 5.1971 12.3493C5.13371 12.2017 5.08597 11.9777 5.10314 11.8792" fill="white"/>
<path d="M10.2086 16.0478C6.94437 16.0478 4.28882 13.3483 4.28882 10.0299C4.28882 6.7117 6.94437 4.01207 10.2086 4.01207C13.4727 4.01207 16.1283 6.7117 16.1283 10.0299C16.1283 13.3483 13.4727 16.0478 10.2086 16.0478ZM10.2086 4.63893C7.28978 4.63893 4.91525 7.05735 4.91525 10.0299C4.91525 13.0025 7.28978 15.4209 10.2086 15.4209C13.1273 15.4209 15.5019 13.0025 15.5019 10.0299C15.5019 7.05735 13.1273 4.63893 10.2086 4.63893Z" fill="white"/>
<path d="M5.34544 12.0341C5.11755 12.0341 4.87587 11.9914 4.61365 11.8891L4.84104 11.3051C5.47799 11.5532 5.94117 11.3022 6.58238 10.9547C6.66532 10.9098 6.74977 10.8639 6.83659 10.8183C7.42769 10.5068 7.95326 9.45497 8.20583 8.94947C8.78741 7.78564 10.1095 6.95531 11.276 7.01724C12.0295 7.05736 12.6099 7.47761 12.8682 8.17003L13.0507 8.65936L12.5334 8.59041C12.3241 8.5622 12.1478 8.60971 12.0093 8.7307C11.8276 8.88942 11.7185 9.16687 11.7175 9.47302C11.7153 10.1252 12.2361 10.3645 12.6733 10.4507C13.2042 10.5554 13.8917 10.4988 14.5125 10.2997C14.6979 10.2402 14.864 10.1618 15.0245 10.0858C15.3038 9.95383 15.5927 9.8173 15.9729 9.78056L16.033 10.4045C15.7614 10.4307 15.5439 10.5335 15.292 10.6526C15.1215 10.7333 14.9282 10.8247 14.7035 10.8966C13.9865 11.1266 13.1823 11.1896 12.5524 11.0657C11.6346 10.8852 11.0883 10.2891 11.091 9.47089C11.0927 8.97981 11.2772 8.53788 11.5974 8.2583C11.7336 8.13944 11.8882 8.05469 12.0566 8.0058C11.8189 7.7375 11.5006 7.65689 11.2425 7.6431C10.4398 7.60122 9.28955 8.18182 8.76599 9.22968C8.31508 10.1322 7.80454 11.0165 7.12838 11.3728C7.04381 11.4173 6.9615 11.462 6.88069 11.5058C6.38356 11.7754 5.90597 12.0341 5.34544 12.0341Z" fill="white"/>
</g>
</g>
</g>
</g>
</g>
</g>
</g>
</g>
<defs>
<clipPath id="clip0_4_43">
<rect width="114" height="20" fill="white"/>
</clipPath>
<clipPath id="clip1_4_43">
<rect width="118.14" height="19.9401" fill="white" transform="translate(-0.0690918 0.0598602)"/>
</clipPath>
<clipPath id="clip2_4_43">
<rect width="117.631" height="20.0595" fill="white" transform="translate(0.185669 0.000167847)"/>
</clipPath>
<clipPath id="clip3_4_43">
<rect width="117.631" height="20.0595" fill="white" transform="translate(0.185669 0.000167847)"/>
</clipPath>
<clipPath id="clip4_4_43">
<rect width="86.6364" height="13.2934" fill="white" transform="translate(27.1321 4.15446)"/>
</clipPath>
<clipPath id="clip5_4_43">
<rect width="86.6364" height="13.2934" fill="white" transform="translate(27.1321 4.15446)"/>
</clipPath>
<clipPath id="clip6_4_43">
<rect width="86.6364" height="13.2934" fill="white" transform="translate(27.1321 4.15446)"/>
</clipPath>
<clipPath id="clip7_4_43">
<rect width="86.6364" height="13.2934" fill="white" transform="translate(27.1321 4.15446)"/>
</clipPath>
<clipPath id="clip8_4_43">
<rect width="20.0457" height="20.0595" fill="white" transform="translate(0.185669 0.000167847)"/>
</clipPath>
<clipPath id="clip9_4_43">
<rect width="20.0457" height="20.0595" fill="white" transform="translate(0.185669 0.000167847)"/>
</clipPath>
<clipPath id="clip10_4_43">
<rect width="11.8395" height="12.0357" fill="white" transform="translate(4.28882 4.01207)"/>
</clipPath>
<clipPath id="clip11_4_43">
<rect width="11.8395" height="12.0357" fill="white" transform="translate(4.28882 4.01207)"/>
</clipPath>
</defs>
</svg>
