<svg width="18" height="17" viewBox="0 0 18 17" fill="none" xmlns="http://www.w3.org/2000/svg">
<path d="M3.5 0H14.5C15.2956 0 16.0587 0.316071 16.6213 0.87868C17.1839 1.44129 17.5 2.20435 17.5 3V14C17.5 14.7956 17.1839 15.5587 16.6213 16.1213C16.0587 16.6839 15.2956 17 14.5 17H3.5C2.70435 17 1.94129 16.6839 1.37868 16.1213C0.816071 15.5587 0.5 14.7956 0.5 14V3C0.5 2.20435 0.816071 1.44129 1.37868 0.87868C1.94129 0.316071 2.70435 0 3.5 0ZM3.5 1C2.96957 1 2.46086 1.21071 2.08579 1.58579C1.71071 1.96086 1.5 2.46957 1.5 3V11H6.5V11.5C6.5 12.163 6.76339 12.7989 7.23223 13.2678C7.70107 13.7366 8.33696 14 9 14C9.66304 14 10.2989 13.7366 10.7678 13.2678C11.2366 12.7989 11.5 12.163 11.5 11.5V11H16.5V3C16.5 2.46957 16.2893 1.96086 15.9142 1.58579C15.5391 1.21071 15.0304 1 14.5 1H3.5ZM1.5 14C1.5 14.5304 1.71071 15.0391 2.08579 15.4142C2.46086 15.7893 2.96957 16 3.5 16H14.5C15.0304 16 15.5391 15.7893 15.9142 15.4142C16.2893 15.0391 16.5 14.5304 16.5 14V12H12.46C12.22 13.7 10.76 15 9 15C7.24 15 5.78 13.7 5.54 12H1.5V14Z" fill="white"/>
</svg>
