<svg width="31" height="31" viewBox="0 0 31 31" fill="none" xmlns="http://www.w3.org/2000/svg">
<path d="M21.7008 12.4C21.7008 14.0444 21.0476 15.6214 19.8848 16.7841C18.7221 17.9468 17.1451 18.6001 15.5008 18.6001C13.8564 18.6001 12.2794 17.9468 11.1167 16.7841C9.95399 15.6214 9.30078 14.0444 9.30078 12.4C9.30078 10.7557 9.95399 9.17868 11.1167 8.01596C12.2794 6.85323 13.8564 6.20001 15.5008 6.20001C17.1451 6.20001 18.7221 6.85323 19.8848 8.01596C21.0476 9.17868 21.7008 10.7557 21.7008 12.4Z" fill="white"/>
<path fill-rule="evenodd" clip-rule="evenodd" d="M14.8676 30.9877C6.60067 30.656 0 23.8484 0 15.5C0 6.93937 6.93935 0 15.5 0C24.0606 0 31 6.93937 31 15.5C31 24.0607 24.0606 31.0001 15.5 31.0001C15.4292 31.0006 15.3584 31.0006 15.2876 31.0001C15.1474 31.0001 15.0071 30.9955 14.8676 30.9877ZM5.55365 25.2806C5.43776 24.9478 5.39831 24.5931 5.43824 24.243C5.47816 23.8929 5.59643 23.5562 5.78427 23.258C5.97211 22.9599 6.22469 22.7078 6.52327 22.5206C6.82185 22.3334 7.15875 22.2159 7.50897 22.1767C13.5509 21.5079 17.4863 21.5683 23.4988 22.1906C23.8495 22.2272 24.1872 22.3432 24.4863 22.53C24.7853 22.7168 25.0378 22.9693 25.2245 23.2684C25.4112 23.5676 25.5272 23.9053 25.5636 24.256C25.6 24.6067 25.556 24.9611 25.4347 25.2922C28.0115 22.685 29.4546 19.1658 29.45 15.5C29.45 7.79575 23.2043 1.55 15.5 1.55C7.79572 1.55 1.55 7.79575 1.55 15.5C1.55 19.31 3.07753 22.7634 5.55365 25.2806Z" fill="white"/>
</svg>
